<?xml version="1.0" encoding="utf-8" standalone="no"?>
<!DOCTYPE svg PUBLIC "-//W3C//DTD SVG 1.1//EN"
  "http://www.w3.org/Graphics/SVG/1.1/DTD/svg11.dtd">
<!-- Created with matplotlib (http://matplotlib.org/) -->
<svg height="345pt" version="1.1" viewBox="0 0 460 345" width="460pt" xmlns="http://www.w3.org/2000/svg" xmlns:xlink="http://www.w3.org/1999/xlink">
 <defs>
  <style type="text/css">
*{stroke-linecap:butt;stroke-linejoin:round;}
  </style>
 </defs>
 <g id="figure_1">
  <g id="patch_1">
   <path d="M 0 345.6 
L 460.8 345.6 
L 460.8 0 
L 0 0 
z
" style="fill:#ffffff;"/>
  </g>
  <g id="axes_1">
   <g id="patch_2">
    <path d="M 57.6 154.711149 
L 227.657143 154.711149 
L 227.657143 41.472 
L 57.6 41.472 
z
" style="fill:#ffffff;"/>
   </g>
   <g id="matplotlib.axis_1">
    <g id="xtick_1">
     <g id="line2d_1">
      <path clip-path="url(#p5d5e73585b)" d="M 58.608244 154.711149 
L 58.608244 41.472 
" style="fill:none;stroke:#cccccc;stroke-linecap:round;stroke-width:0.8;"/>
     </g>
     <g id="line2d_2"/>
     <g id="text_1">
      <!-- $0$ -->
      <defs>
       <path d="M 42 31.640625 
C 42 37.75 41.90625 48.125 37.703125 56.109375 
C 34 63.109375 28.09375 65.59375 22.90625 65.59375 
C 18.09375 65.59375 12 63.40625 8.203125 56.203125 
C 4.203125 48.71875 3.796875 39.4375 3.796875 31.640625 
C 3.796875 25.953125 3.90625 17.28125 7 9.671875 
C 11.296875 -0.609375 19 -2 22.90625 -2 
C 27.5 -2 34.5 -0.109375 38.59375 9.375 
C 41.59375 16.28125 42 24.359375 42 31.640625 
z
M 22.90625 -0.40625 
C 16.5 -0.40625 12.703125 5.078125 11.296875 12.6875 
C 10.203125 18.5625 10.203125 27.15625 10.203125 32.75 
C 10.203125 40.4375 10.203125 46.828125 11.5 52.921875 
C 13.40625 61.390625 19 64 22.90625 64 
C 27 64 32.296875 61.296875 34.203125 53.125 
C 35.5 47.4375 35.59375 40.734375 35.59375 32.75 
C 35.59375 26.25 35.59375 18.265625 34.40625 12.375 
C 32.296875 1.484375 26.40625 -0.40625 22.90625 -0.40625 
z
" id="CMR17-48"/>
      </defs>
      <g style="fill:#262626;" transform="translate(55.681749 166.513329)scale(0.12 -0.12)">
       <use transform="scale(0.996264)" xlink:href="#CMR17-48"/>
      </g>
     </g>
    </g>
    <g id="xtick_2">
     <g id="line2d_3">
      <path clip-path="url(#p5d5e73585b)" d="M 125.824506 154.711149 
L 125.824506 41.472 
" style="fill:none;stroke:#cccccc;stroke-linecap:round;stroke-width:0.8;"/>
     </g>
     <g id="line2d_4"/>
     <g id="text_2">
      <!-- $10$ -->
      <defs>
       <path d="M 26.59375 63.40625 
C 26.59375 65.5 26.5 65.5 25.09375 65.5 
C 21.203125 61.1875 15.296875 59.796875 9.703125 59.796875 
C 9.40625 59.796875 8.90625 59.796875 8.796875 59.5 
C 8.703125 59.296875 8.703125 59.09375 8.703125 57 
C 11.796875 57 17 57.59375 21 59.984375 
L 21 7.203125 
C 21 3.6875 20.796875 2.5 12.203125 2.5 
L 9.203125 2.5 
L 9.203125 0 
C 14 0 19 0 23.796875 0 
C 28.59375 0 33.59375 0 38.40625 0 
L 38.40625 2.5 
L 35.40625 2.5 
C 26.796875 2.5 26.59375 3.59375 26.59375 7.15625 
z
" id="CMR17-49"/>
      </defs>
      <g style="fill:#262626;" transform="translate(119.971516 166.513329)scale(0.12 -0.12)">
       <use transform="scale(0.996264)" xlink:href="#CMR17-49"/>
       <use transform="translate(45.690477 0)scale(0.996264)" xlink:href="#CMR17-48"/>
      </g>
     </g>
    </g>
    <g id="xtick_3">
     <g id="line2d_5">
      <path clip-path="url(#p5d5e73585b)" d="M 193.040768 154.711149 
L 193.040768 41.472 
" style="fill:none;stroke:#cccccc;stroke-linecap:round;stroke-width:0.8;"/>
     </g>
     <g id="line2d_6"/>
     <g id="text_3">
      <!-- $20$ -->
      <defs>
       <path d="M 41.703125 15.453125 
L 39.90625 15.453125 
C 38.90625 8.375 38.09375 7.171875 37.703125 6.5625 
C 37.203125 5.765625 30 5.765625 28.59375 5.765625 
L 9.40625 5.765625 
C 13 9.671875 20 16.75 28.5 24.953125 
C 34.59375 30.734375 41.703125 37.53125 41.703125 47.421875 
C 41.703125 59.21875 32.296875 66 21.796875 66 
C 10.796875 66 4.09375 56.3125 4.09375 47.34375 
C 4.09375 43.4375 7 42.9375 8.203125 42.9375 
C 9.203125 42.9375 12.203125 43.546875 12.203125 47.03125 
C 12.203125 50.109375 9.59375 51 8.203125 51 
C 7.59375 51 7 50.90625 6.59375 50.703125 
C 8.5 59.21875 14.296875 63.40625 20.40625 63.40625 
C 29.09375 63.40625 34.796875 56.515625 34.796875 47.421875 
C 34.796875 38.734375 29.703125 31.25 24 24.75 
L 4.09375 2.28125 
L 4.09375 0 
L 39.296875 0 
z
" id="CMR17-50"/>
      </defs>
      <g style="fill:#262626;" transform="translate(187.187778 166.513329)scale(0.12 -0.12)">
       <use transform="scale(0.996264)" xlink:href="#CMR17-50"/>
       <use transform="translate(45.690477 0)scale(0.996264)" xlink:href="#CMR17-48"/>
      </g>
     </g>
    </g>
    <g id="text_4">
     <!-- $\textit{Threads}$ -->
     <defs>
      <path d="M 49.5 62 
L 57.796875 62 
C 59 62 60.203125 62 61.40625 62 
L 73.90625 62 
L 75.296875 68.375 
L 18.09375 68.375 
L 16.703125 62 
L 29.203125 62 
C 30.40625 62 31.59375 62 32.796875 62 
L 41.09375 62 
L 27.796875 -0.5 
L 36.203125 -0.5 
z
" id="CMSSI17-84"/>
      <path d="M 47.203125 29.75 
C 47.59375 31.4375 47.703125 32.34375 47.703125 34.8125 
C 47.703125 41.078125 44.203125 44.0625 37.296875 44.0625 
C 28.90625 44.0625 23.09375 38 22.796875 37.703125 
L 22.703125 37.703125 
L 29.59375 69.5 
L 22.203125 69.5 
L 7.40625 0.5 
L 15 0.5 
L 19.59375 21.984375 
C 20.5 26.265625 23.09375 38 32.203125 38 
C 37.5 38 39.796875 35.90625 39.796875 32.015625 
C 39.796875 30.625 39.703125 30.234375 39.59375 29.734375 
L 33.296875 0.5 
L 40.90625 0.5 
z
" id="CMSSI17-104"/>
      <path d="M 18.59375 17.5 
C 20.09375 24.203125 20.703125 27.40625 25.296875 31.796875 
C 27 33.40625 31.5 37 38.5 37 
L 39.90625 43.578125 
C 30.5 43.578125 25 38.015625 22.09375 35.203125 
L 23.796875 43.171875 
L 16.703125 43.171875 
L 7.5 0 
L 14.90625 0 
z
" id="CMSSI17-114"/>
      <path d="M 43.796875 21.515625 
C 44.40625 24.140625 44.703125 26.859375 44.703125 29.578125 
C 44.703125 41.484375 37.09375 44 31.59375 44 
C 19.203125 44 7.09375 30.390625 7.09375 16.40625 
C 7.09375 5.5 14.40625 -1 23.40625 -1 
C 27.5 -1 33.09375 0 39.5 3.875 
L 40.203125 10.234375 
C 33.5 5.5625 27.296875 5.078125 24.90625 5.078125 
C 18.203125 5.078125 14.296875 10.3125 14.296875 17.25 
C 14.296875 21.515625 14.59375 21.515625 16.59375 21.515625 
z
M 16.703125 27 
C 19.90625 33.734375 25.5 37.921875 30.203125 37.921875 
C 38.40625 37.921875 38.40625 29.4375 38.40625 27 
z
" id="CMSSI17-101"/>
      <path d="M 43.59375 28.1875 
C 44 30.1875 44.09375 30.59375 44.09375 31.78125 
C 44.09375 37.375 40.5 43.875 31.296875 43.875 
C 27.203125 43.875 22.09375 43.171875 15.703125 39.890625 
L 15 33.40625 
C 19.796875 36.203125 24.296875 38 30 38 
C 35.59375 38 36.40625 33.171875 36.40625 30.953125 
C 36.40625 29.75 35.703125 26.328125 35.203125 24 
C 26 24 6.09375 21.890625 6.09375 8.3125 
C 6.09375 7.5 6.09375 -1 14.703125 -1 
C 16.59375 -1 24.59375 -1 31 3.390625 
L 30.203125 -0.296875 
L 37.59375 -0.296875 
z
M 34.09375 18.625 
C 33.796875 17.171875 32.703125 11.65625 32.40625 10.78125 
C 30.703125 6.421875 24.59375 4.984375 20.796875 4.984375 
C 17.796875 4.984375 13.703125 6.21875 13.703125 10.453125 
C 13.703125 18.625 30.90625 18.625 34.09375 18.625 
z
" id="CMSSI17-97"/>
      <path d="M 55.59375 69.5 
L 48.203125 69.5 
L 41.703125 39.09375 
C 36.90625 43.875 31.203125 43.875 28.90625 43.875 
C 17.90625 43.875 7.203125 29.640625 7.203125 15.234375 
C 7.203125 6.859375 11.296875 -0.5 19.203125 -0.5 
C 21.703125 -0.5 27.703125 0.09375 34.296875 5.3125 
L 33.203125 0.296875 
L 40.796875 0.296875 
z
M 35.703125 11.90625 
C 34.203125 9.90625 30.09375 5.609375 24.59375 5.609375 
C 21.59375 5.609375 14.90625 6.890625 14.90625 16.59375 
C 14.90625 28 22.40625 38 32.40625 38 
C 36.796875 38 39.09375 35.484375 40.203125 33.296875 
z
" id="CMSSI17-100"/>
      <path d="M 40.90625 40.984375 
C 37.09375 42.96875 33.40625 43.96875 28.09375 43.96875 
C 12 43.96875 9.59375 32.46875 9.59375 29.078125 
C 9.59375 20.96875 17.703125 19.265625 20.796875 18.578125 
C 26 17.46875 29.40625 16.765625 29.40625 12.671875 
C 29.40625 10.78125 28 5.265625 19.5 5.265625 
C 16.203125 5.265625 10.703125 5.96875 6 9.96875 
L 3.40625 3.28125 
C 6.703125 0.984375 11.90625 -1 18.203125 -1 
C 33.40625 -1 36.703125 10.296875 36.703125 14.796875 
C 36.703125 23.390625 28.5 25.09375 24.59375 25.90625 
C 20.203125 26.796875 16.90625 27.5 16.90625 31.1875 
C 16.90625 31.484375 16.90625 38 25.90625 38 
C 30.09375 38 34 37.203125 38.40625 34.59375 
z
" id="CMSSI17-115"/>
     </defs>
     <g style="fill:#262626;" transform="translate(122.995485 181.140104)scale(0.12 -0.12)">
      <use transform="scale(0.996264)" xlink:href="#CMSSI17-84"/>
      <use transform="translate(63.819454 0)scale(0.996264)" xlink:href="#CMSSI17-104"/>
      <use transform="translate(112.024397 0)scale(0.996264)" xlink:href="#CMSSI17-114"/>
      <use transform="translate(143.93417 0)scale(0.996264)" xlink:href="#CMSSI17-101"/>
      <use transform="translate(185.572992 0)scale(0.996264)" xlink:href="#CMSSI17-97"/>
      <use transform="translate(230.494912 0)scale(0.996264)" xlink:href="#CMSSI17-100"/>
      <use transform="translate(278.699855 0)scale(0.996264)" xlink:href="#CMSSI17-115"/>
     </g>
    </g>
   </g>
   <g id="matplotlib.axis_2">
    <g id="ytick_1">
     <g id="line2d_7">
      <path clip-path="url(#p5d5e73585b)" d="M 57.6 152.837707 
L 227.657143 152.837707 
" style="fill:none;stroke:#cccccc;stroke-linecap:round;stroke-width:0.8;"/>
     </g>
     <g id="line2d_8"/>
     <g id="text_5">
      <!-- $0$ -->
      <g style="fill:#262626;" transform="translate(48.24701 156.988797)scale(0.12 -0.12)">
       <use transform="scale(0.996264)" xlink:href="#CMR17-48"/>
      </g>
     </g>
    </g>
    <g id="ytick_2">
     <g id="line2d_9">
      <path clip-path="url(#p5d5e73585b)" d="M 57.6 100.797657 
L 227.657143 100.797657 
" style="fill:none;stroke:#cccccc;stroke-linecap:round;stroke-width:0.8;"/>
     </g>
     <g id="line2d_10"/>
     <g id="text_6">
      <!-- $5$ -->
      <defs>
       <path d="M 11.40625 57.6875 
C 12.40625 57.28125 16.5 56 20.703125 56 
C 30 56 35.09375 61.109375 38 64.0625 
C 38 64.953125 38 65.5 37.40625 65.5 
C 37.296875 65.5 37.09375 65.5 36.296875 65.046875 
C 32.796875 63.40625 28.703125 62.078125 23.703125 62.078125 
C 20.703125 62.078125 16.203125 62.484375 11.296875 64.671875 
C 10.203125 65.171875 10 65.171875 9.90625 65.171875 
C 9.40625 65.171875 9.296875 65.0625 9.296875 63.078125 
L 9.296875 34.421875 
C 9.296875 32.640625 9.296875 32.140625 10.296875 32.140625 
C 10.796875 32.140625 11 32.34375 11.5 33.03125 
C 14.703125 37.515625 19.09375 39.40625 24.09375 39.40625 
C 27.59375 39.40625 35.09375 37.21875 35.09375 20.140625 
C 35.09375 16.953125 35.09375 11.171875 32.09375 6.578125 
C 29.59375 2.484375 25.703125 0.390625 21.40625 0.390625 
C 14.796875 0.390625 8.09375 5 6.296875 12.71875 
C 6.703125 12.609375 7.5 12.421875 7.90625 12.421875 
C 9.203125 12.421875 11.703125 13.125 11.703125 16.21875 
C 11.703125 18.90625 9.796875 20 7.90625 20 
C 5.59375 20 4.09375 18.59375 4.09375 15.796875 
C 4.09375 7.09375 11 -2 21.59375 -2 
C 31.90625 -2 41.703125 6.875 41.703125 19.75 
C 41.703125 31.71875 33.90625 41 24.203125 41 
C 19.09375 41 14.796875 39.109375 11.40625 35.53125 
z
" id="CMR17-53"/>
      </defs>
      <g style="fill:#262626;" transform="translate(48.24701 104.948747)scale(0.12 -0.12)">
       <use transform="scale(0.996264)" xlink:href="#CMR17-53"/>
      </g>
     </g>
    </g>
    <g id="ytick_3">
     <g id="line2d_11">
      <path clip-path="url(#p5d5e73585b)" d="M 57.6 48.757607 
L 227.657143 48.757607 
" style="fill:none;stroke:#cccccc;stroke-linecap:round;stroke-width:0.8;"/>
     </g>
     <g id="line2d_12"/>
     <g id="text_7">
      <!-- $10$ -->
      <g style="fill:#262626;" transform="translate(42.394019 52.908697)scale(0.12 -0.12)">
       <use transform="scale(0.996264)" xlink:href="#CMR17-49"/>
       <use transform="translate(45.690477 0)scale(0.996264)" xlink:href="#CMR17-48"/>
      </g>
     </g>
    </g>
    <g id="text_8">
     <!-- $\textit{Seconds}$ -->
     <defs>
      <path d="M 57.703125 65.140625 
C 52.90625 68.40625 48.203125 70 41.5 70 
C 27.09375 70 15.796875 58.203125 15.796875 47.296875 
C 15.796875 42.640625 17.796875 39.0625 20 36.890625 
C 23 33.8125 24.703125 33.328125 34.203125 30.734375 
C 37.203125 29.84375 43.5 28.171875 43.5 20.328125 
C 43.5 13.09375 36.40625 4.765625 26.796875 4.765625 
C 19.796875 4.765625 13.09375 7.640625 8.5 12.796875 
L 5.296875 4.96875 
C 11 0.296875 18.203125 -2 25.5 -2 
C 39.296875 -2 51.40625 10.296875 51.40625 22.6875 
C 51.40625 27.9375 49.40625 31.3125 47.09375 33.890625 
C 44.296875 36.96875 41.40625 37.765625 34.90625 39.640625 
C 29.203125 41.234375 28.703125 41.328125 26.59375 43.109375 
C 26.40625 43.296875 23.796875 45.5 23.796875 49.65625 
C 23.796875 56.5 30.90625 63.4375 40.09375 63.4375 
C 43.59375 63.4375 49.703125 62.9375 54.59375 57.1875 
z
" id="CMSSI17-83"/>
      <path d="M 47.09375 40 
C 42.296875 43.203125 39.203125 44 33.5 44 
C 18.40625 44 7.296875 28.90625 7.296875 16.203125 
C 7.296875 7.09375 13 -1 23.59375 -1 
C 30.5 -1 35.796875 1.390625 40 3.796875 
C 40.203125 5.984375 40.5 8.1875 40.703125 10.375 
C 38.703125 9.0625 32.90625 5.265625 25 5.265625 
C 18.90625 5.265625 15 9.390625 15 16.703125 
C 15 25.703125 20.90625 37.71875 32.203125 37.71875 
C 37 37.71875 40 37.03125 44.59375 33.609375 
z
" id="CMSSI17-99"/>
      <path d="M 49.296875 26.296875 
C 49.296875 37 42.203125 44 32.796875 44 
C 19.5 44 6.703125 30.203125 6.703125 16.203125 
C 6.703125 6.296875 13.5 -1 23.296875 -1 
C 36.40625 -1 49.296875 11.90625 49.296875 26.296875 
z
M 24.59375 5.265625 
C 18.90625 5.265625 14.40625 9.1875 14.40625 16.890625 
C 14.40625 27.515625 21.40625 37.921875 31.5 37.921875 
C 37.5 37.921875 41.90625 33.90625 41.90625 26.8125 
C 41.90625 17.5 35.40625 5.265625 24.59375 5.265625 
z
" id="CMSSI17-111"/>
      <path d="M 47.203125 29.75 
C 47.59375 31.4375 47.703125 32.34375 47.703125 34.8125 
C 47.703125 41.078125 44.203125 44.0625 37.296875 44.0625 
C 28.796875 44.0625 23 37.796875 22.59375 37.390625 
L 23.90625 43.5625 
L 16.59375 43.5625 
L 7.40625 0.5 
L 15 0.5 
L 19.59375 21.984375 
C 20.5 26.265625 23.09375 38 32.203125 38 
C 37.5 38 39.796875 35.90625 39.796875 32.015625 
C 39.796875 30.625 39.703125 30.234375 39.59375 29.734375 
L 33.296875 0.5 
L 40.90625 0.5 
z
" id="CMSSI17-110"/>
     </defs>
     <g style="fill:#262626;" transform="translate(36.069424 117.72121)rotate(-90)scale(0.12 -0.12)">
      <use transform="scale(0.996264)" xlink:href="#CMSSI17-83"/>
      <use transform="translate(52.048516 0)scale(0.996264)" xlink:href="#CMSSI17-101"/>
      <use transform="translate(93.687338 0)scale(0.996264)" xlink:href="#CMSSI17-99"/>
      <use transform="translate(135.32616 0)scale(0.996264)" xlink:href="#CMSSI17-111"/>
      <use transform="translate(182.169784 0)scale(0.996264)" xlink:href="#CMSSI17-110"/>
      <use transform="translate(230.374727 0)scale(0.996264)" xlink:href="#CMSSI17-100"/>
      <use transform="translate(278.57967 0)scale(0.996264)" xlink:href="#CMSSI17-115"/>
     </g>
    </g>
   </g>
   <g id="line2d_13">
    <path clip-path="url(#p5d5e73585b)" d="M 65.32987 149.6966 
L 72.051496 151.221495 
L 85.494749 151.988166 
L 112.381254 152.148455 
L 139.267758 152.136455 
L 166.154263 152.139582 
L 193.040768 152.143714 
L 219.927273 151.245061 
" style="fill:none;stroke:#1f77b4;stroke-linecap:round;stroke-width:1.5;"/>
    <defs>
     <path d="M 0 -3 
L -0.673542 -0.927051 
L -2.85317 -0.927051 
L -1.089814 0.354102 
L -1.763356 2.427051 
L -0 1.145898 
L 1.763356 2.427051 
L 1.089814 0.354102 
L 2.85317 -0.927051 
L 0.673542 -0.927051 
z
" id="mcfb3a4981b" style="stroke:#1f77b4;stroke-linejoin:bevel;"/>
    </defs>
    <g clip-path="url(#p5d5e73585b)">
     <use style="fill:#1f77b4;stroke:#1f77b4;stroke-linejoin:bevel;" x="65.32987" xlink:href="#mcfb3a4981b" y="149.6966"/>
     <use style="fill:#1f77b4;stroke:#1f77b4;stroke-linejoin:bevel;" x="72.051496" xlink:href="#mcfb3a4981b" y="151.221495"/>
     <use style="fill:#1f77b4;stroke:#1f77b4;stroke-linejoin:bevel;" x="85.494749" xlink:href="#mcfb3a4981b" y="151.988166"/>
     <use style="fill:#1f77b4;stroke:#1f77b4;stroke-linejoin:bevel;" x="112.381254" xlink:href="#mcfb3a4981b" y="152.148455"/>
     <use style="fill:#1f77b4;stroke:#1f77b4;stroke-linejoin:bevel;" x="139.267758" xlink:href="#mcfb3a4981b" y="152.136455"/>
     <use style="fill:#1f77b4;stroke:#1f77b4;stroke-linejoin:bevel;" x="166.154263" xlink:href="#mcfb3a4981b" y="152.139582"/>
     <use style="fill:#1f77b4;stroke:#1f77b4;stroke-linejoin:bevel;" x="193.040768" xlink:href="#mcfb3a4981b" y="152.143714"/>
     <use style="fill:#1f77b4;stroke:#1f77b4;stroke-linejoin:bevel;" x="219.927273" xlink:href="#mcfb3a4981b" y="151.245061"/>
    </g>
   </g>
   <g id="line2d_14">
    <path clip-path="url(#p5d5e73585b)" d="M 65.32987 149.365613 
L 72.051496 150.989822 
L 85.494749 151.895836 
L 112.381254 152.027356 
L 139.267758 151.930797 
L 166.154263 151.813732 
L 193.040768 151.818737 
L 219.927273 151.360209 
" style="fill:none;stroke:#ff7f0e;stroke-linecap:round;stroke-width:1.5;"/>
    <defs>
     <path d="M 0 -3 
L -0.673542 -0.927051 
L -2.85317 -0.927051 
L -1.089814 0.354102 
L -1.763356 2.427051 
L -0 1.145898 
L 1.763356 2.427051 
L 1.089814 0.354102 
L 2.85317 -0.927051 
L 0.673542 -0.927051 
z
" id="made26a5bcd" style="stroke:#ff7f0e;stroke-linejoin:bevel;"/>
    </defs>
    <g clip-path="url(#p5d5e73585b)">
     <use style="fill:#ff7f0e;stroke:#ff7f0e;stroke-linejoin:bevel;" x="65.32987" xlink:href="#made26a5bcd" y="149.365613"/>
     <use style="fill:#ff7f0e;stroke:#ff7f0e;stroke-linejoin:bevel;" x="72.051496" xlink:href="#made26a5bcd" y="150.989822"/>
     <use style="fill:#ff7f0e;stroke:#ff7f0e;stroke-linejoin:bevel;" x="85.494749" xlink:href="#made26a5bcd" y="151.895836"/>
     <use style="fill:#ff7f0e;stroke:#ff7f0e;stroke-linejoin:bevel;" x="112.381254" xlink:href="#made26a5bcd" y="152.027356"/>
     <use style="fill:#ff7f0e;stroke:#ff7f0e;stroke-linejoin:bevel;" x="139.267758" xlink:href="#made26a5bcd" y="151.930797"/>
     <use style="fill:#ff7f0e;stroke:#ff7f0e;stroke-linejoin:bevel;" x="166.154263" xlink:href="#made26a5bcd" y="151.813732"/>
     <use style="fill:#ff7f0e;stroke:#ff7f0e;stroke-linejoin:bevel;" x="193.040768" xlink:href="#made26a5bcd" y="151.818737"/>
     <use style="fill:#ff7f0e;stroke:#ff7f0e;stroke-linejoin:bevel;" x="219.927273" xlink:href="#made26a5bcd" y="151.360209"/>
    </g>
   </g>
   <g id="line2d_15">
    <path clip-path="url(#p5d5e73585b)" d="M 166.154263 152.065036 
" style="fill:none;stroke:#800080;stroke-linecap:round;stroke-width:1.5;"/>
    <defs>
     <path d="M 0 -3 
L -0.673542 -0.927051 
L -2.85317 -0.927051 
L -1.089814 0.354102 
L -1.763356 2.427051 
L -0 1.145898 
L 1.763356 2.427051 
L 1.089814 0.354102 
L 2.85317 -0.927051 
L 0.673542 -0.927051 
z
" id="m7ffb20cd40" style="stroke:#800080;stroke-linejoin:bevel;"/>
    </defs>
    <g clip-path="url(#p5d5e73585b)">
     <use style="fill:#800080;stroke:#800080;stroke-linejoin:bevel;" x="166.154263" xlink:href="#m7ffb20cd40" y="152.065036"/>
    </g>
   </g>
   <g id="line2d_16">
    <path clip-path="url(#p5d5e73585b)" d="M 65.32987 149.720112 
L 72.051496 149.720112 
L 85.494749 149.720112 
L 112.381254 149.720112 
L 139.267758 149.720112 
L 166.154263 149.720112 
L 193.040768 149.720112 
L 219.927273 149.720112 
" style="fill:none;stroke:#008000;stroke-dasharray:6.4,1.6,1,1.6;stroke-dashoffset:0;"/>
   </g>
   <g id="line2d_17">
    <path clip-path="url(#p5d5e73585b)" d="M 65.32987 149.720112 
L 72.051496 151.278909 
L 85.494749 152.058308 
L 112.381254 152.448008 
L 139.267758 152.577908 
L 166.154263 152.642857 
L 193.040768 152.681827 
L 219.927273 152.707807 
" style="fill:none;opacity:0.6;stroke:#000000;stroke-dasharray:6.475,2.8;stroke-dashoffset:0;stroke-width:1.75;"/>
   </g>
   <g id="patch_3">
    <path d="M 57.6 154.711149 
L 57.6 41.472 
" style="fill:none;stroke:#262626;stroke-linecap:square;stroke-linejoin:miter;stroke-width:1.25;"/>
   </g>
   <g id="patch_4">
    <path d="M 227.657143 154.711149 
L 227.657143 41.472 
" style="fill:none;stroke:#262626;stroke-linecap:square;stroke-linejoin:miter;stroke-width:1.25;"/>
   </g>
   <g id="patch_5">
    <path d="M 57.6 154.711149 
L 227.657143 154.711149 
" style="fill:none;stroke:#262626;stroke-linecap:square;stroke-linejoin:miter;stroke-width:1.25;"/>
   </g>
   <g id="patch_6">
    <path d="M 57.6 41.472 
L 227.657143 41.472 
" style="fill:none;stroke:#262626;stroke-linecap:square;stroke-linejoin:miter;stroke-width:1.25;"/>
   </g>
   <g id="text_9">
    <!-- Completion time -->
    <defs>
     <path d="M 54.703125 11.15625 
C 48 6.671875 44.90625 5.375 36.796875 5.375 
C 22.796875 5.375 14.59375 20.359375 14.59375 34.046875 
C 14.59375 48.625 23 63 37.203125 63 
C 43.59375 63 47.796875 61.21875 52.90625 58.046875 
L 54.296875 65.890625 
C 49.5 68.28125 43.40625 69.375 37.296875 69.375 
C 18.09375 69.375 6.203125 51.8125 6.203125 34.046875 
C 6.203125 14.484375 20.296875 -1 36.296875 -1 
C 44.90625 -1 47.90625 -0.296875 55.296875 4.375 
z
" id="CMSS17-67"/>
     <path d="M 44.203125 21.1875 
C 44.203125 34 34.703125 44 23.5 44 
C 12 44 2.703125 33.703125 2.703125 21.1875 
C 2.703125 8.5 12.296875 -1 23.40625 -1 
C 34.796875 -1 44.203125 8.796875 44.203125 21.1875 
z
M 23.5 5.265625 
C 16.40625 5.265625 10.296875 11.078125 10.296875 22 
C 10.296875 33.609375 17.40625 37.921875 23.40625 37.921875 
C 29.90625 37.921875 36.59375 33.21875 36.59375 22 
C 36.59375 10.671875 30.09375 5.265625 23.5 5.265625 
z
" id="CMSS17-111"/>
     <path d="M 67 29.328125 
C 67 36.0625 65.296875 44 54.09375 44 
C 46.59375 44 42.09375 39.3125 40.09375 36.421875 
C 38.296875 41.71875 34.09375 44 28.09375 44 
C 21.296875 44 17 40.125 14.703125 37.328125 
L 14.703125 43.09375 
L 7.40625 43.09375 
L 7.40625 0 
L 15 0 
L 15 24.359375 
C 15 30.296875 17.203125 37.9375 24.296875 37.9375 
C 33.40625 37.9375 33.40625 31.5 33.40625 28.578125 
L 33.40625 0 
L 41 0 
L 41 24.359375 
C 41 30.296875 43.203125 37.9375 50.296875 37.9375 
C 59.40625 37.9375 59.40625 31.5 59.40625 28.578125 
L 59.40625 0 
L 67 0 
z
" id="CMSS17-109"/>
     <path d="M 15.09375 5.203125 
C 18.40625 2.015625 22.90625 -0.078125 27.703125 -0.078125 
C 37 -0.078125 45 9.421875 45 22.0625 
C 45 33.734375 39 44 30.40625 44 
C 25.40625 44 19.40625 42.21875 14.90625 38.625 
L 14.90625 43.203125 
L 7.5 43.203125 
L 7.5 -19 
L 15.09375 -19 
z
M 15.09375 32.8125 
C 15.90625 34 19.296875 37.734375 24.796875 37.734375 
C 31.796875 37.734375 37.40625 30.625 37.40625 22.0625 
C 37.40625 12.296875 30.59375 6 23.90625 6 
C 21.90625 6 19.796875 6.484375 17.796875 8.171875 
C 15.09375 10.53125 15.09375 12 15.09375 13.390625 
z
" id="CMSS17-112"/>
     <path d="M 14.796875 69 
L 7.40625 69 
L 7.40625 0 
L 14.796875 0 
z
" id="CMSS17-108"/>
     <path d="M 39.09375 21.515625 
C 39.09375 24.84375 38.90625 31.296875 35.703125 36.640625 
C 32.203125 42.390625 26.5 44 22.203125 44 
C 11.796875 44 3 34.1875 3 21.484375 
C 3 9.09375 12.09375 -1 23.59375 -1 
C 28.09375 -1 33.59375 0.296875 38.59375 3.875 
C 38.59375 4.28125 38.40625 6.46875 38.296875 6.5625 
C 38.296875 6.765625 38 9.84375 38 10.25 
C 33.203125 6.359375 27.703125 5.078125 23.703125 5.078125 
C 17.296875 5.078125 10.40625 10.421875 10.09375 21.515625 
z
M 10.90625 27 
C 12.203125 32.5625 16.59375 37.828125 22.203125 37.828125 
C 23.703125 37.828125 30.703125 37.828125 32.5 27 
z
" id="CMSS17-101"/>
     <path d="M 16.703125 37 
L 29.703125 37 
L 29.703125 42.765625 
L 16.703125 42.765625 
L 16.703125 55 
L 9.59375 55 
L 9.59375 42.765625 
L 1.703125 42.765625 
L 1.703125 37 
L 9.40625 37 
L 9.40625 11.703125 
C 9.40625 6 10.703125 -1 17.296875 -1 
C 22.296875 -1 26.90625 0.390625 31.296875 2.6875 
L 29.703125 8.5625 
C 27.296875 6.46875 24.40625 5.265625 21.296875 5.265625 
C 16.90625 5.265625 16.703125 10.875 16.703125 13.375 
z
" id="CMSS17-116"/>
     <path d="M 15.296875 65.359375 
L 6.90625 65.359375 
L 6.90625 57 
L 15.296875 57 
z
M 14.796875 42.796875 
L 7.40625 42.796875 
L 7.40625 0 
L 14.796875 0 
z
" id="CMSS17-105"/>
     <path d="M 40.90625 29.328125 
C 40.90625 35.671875 39.40625 44 28.09375 44 
C 21.703125 44 17.5 40.71875 14.703125 37.328125 
L 14.703125 43.09375 
L 7.40625 43.09375 
L 7.40625 0 
L 15 0 
L 15 24.359375 
C 15 30.6875 17.40625 37.9375 24.203125 37.9375 
C 33 37.9375 33.296875 32 33.296875 28.578125 
L 33.296875 0 
L 40.90625 0 
z
" id="CMSS17-110"/>
    </defs>
    <g style="fill:#262626;" transform="translate(102.263073 35.472)scale(0.12 -0.12)">
     <use transform="scale(0.996264)" xlink:href="#CMSS17-67"/>
     <use transform="translate(59.855772 0)scale(0.996264)" xlink:href="#CMSS17-111"/>
     <use transform="translate(106.699395 0)scale(0.996264)" xlink:href="#CMSS17-109"/>
     <use transform="translate(180.92865 0)scale(0.996264)" xlink:href="#CMSS17-112"/>
     <use transform="translate(229.133593 0)scale(0.996264)" xlink:href="#CMSS17-108"/>
     <use transform="translate(251.314316 0)scale(0.996264)" xlink:href="#CMSS17-101"/>
     <use transform="translate(292.953138 0)scale(0.996264)" xlink:href="#CMSS17-116"/>
     <use transform="translate(326.784704 0)scale(0.996264)" xlink:href="#CMSS17-105"/>
     <use transform="translate(348.965427 0)scale(0.996264)" xlink:href="#CMSS17-111"/>
     <use transform="translate(395.809051 0)scale(0.996264)" xlink:href="#CMSS17-110"/>
     <use transform="translate(475.243107 0)scale(0.996264)" xlink:href="#CMSS17-116"/>
     <use transform="translate(509.074674 0)scale(0.996264)" xlink:href="#CMSS17-105"/>
     <use transform="translate(531.255397 0)scale(0.996264)" xlink:href="#CMSS17-109"/>
     <use transform="translate(605.484651 0)scale(0.996264)" xlink:href="#CMSS17-101"/>
    </g>
   </g>
   <g id="legend_1">
    <g id="line2d_18">
     <path d="M 190.372871 110.695421 
L 214.372871 110.695421 
" style="fill:none;stroke:#1f77b4;stroke-linecap:round;stroke-width:1.5;"/>
    </g>
    <g id="line2d_19">
     <g>
      <use style="fill:#1f77b4;stroke:#1f77b4;stroke-linejoin:bevel;" x="202.372871" xlink:href="#mcfb3a4981b" y="110.695421"/>
     </g>
    </g>
    <g id="text_10">
     <!-- 5000 fastflow -->
     <defs>
      <path d="M 14.59375 58.625 
L 39.09375 58.625 
L 39.09375 65 
L 7.296875 65 
L 7.296875 27.828125 
L 14 27.828125 
C 15.796875 31.96875 19.5 35 24.296875 35 
C 28.796875 35 33.796875 31.078125 33.796875 19.78125 
C 33.796875 7.703125 26.703125 4.171875 21.5 4.171875 
C 15.09375 4.171875 9.203125 8 6.59375 13.296875 
L 3.40625 7.796875 
C 8 0.765625 15.5 -2 21.5 -2 
C 33.09375 -2 42.203125 7.765625 42.203125 19.578125 
C 42.203125 31.71875 34.09375 41.078125 24.40625 41.078125 
C 20.90625 41.078125 17.5 39.890625 14.59375 37.484375 
z
" id="CMSS17-53"/>
      <path d="M 43.09375 31.9375 
C 43.09375 37.578125 43 48.078125 38.90625 56.1875 
C 34.796875 64 28.203125 66.078125 23.5 66.078125 
C 16.703125 66.078125 10.90625 62.109375 7.90625 55.78125 
C 4.703125 49.15625 3.796875 42.328125 3.796875 31.9375 
C 3.796875 24.828125 4.09375 16.109375 7.703125 8.484375 
C 11.796875 0.078125 18.703125 -2 23.40625 -2 
C 29.59375 -2 35.59375 1.265625 39 8.09375 
C 42.5 15.21875 43.09375 23.03125 43.09375 31.9375 
z
M 23.40625 4.078125 
C 15.796875 4.078125 13.5 12.671875 12.796875 15.546875 
C 11.59375 20.46875 11.40625 25.21875 11.40625 33.03125 
C 11.40625 39.15625 11.40625 46.0625 13.296875 51.515625 
C 15.59375 57.828125 19.59375 60 23.40625 60 
C 30.796875 60 33.203125 52.6875 34 50.125 
C 35.5 44.890625 35.5 38.765625 35.5 33.03125 
C 35.5 23.84375 35.5 4.078125 23.40625 4.078125 
z
" id="CMSS17-48"/>
      <path d="M 16.796875 37 
L 26.90625 37 
L 26.90625 42.765625 
L 16.59375 42.765625 
L 16.59375 55.609375 
C 16.59375 62.71875 22 63.9375 25.09375 63.9375 
C 26.09375 63.9375 28.90625 63.9375 32.5 62.640625 
L 32.5 69.203125 
C 30.203125 69.703125 27.40625 70 25.203125 70 
C 15.90625 70 9.40625 62.390625 9.40625 52.484375 
L 9.40625 42.765625 
L 2.5 42.765625 
L 2.5 37 
L 9.40625 37 
L 9.40625 0 
L 16.796875 0 
z
" id="CMSS17-102"/>
      <path d="M 37.59375 27.984375 
C 37.59375 37.375 30.90625 43.875 21.90625 43.875 
C 17.5 43.875 12.703125 43.078125 7.203125 39.890625 
L 7.796875 33.359375 
C 10.296875 35.125 14.59375 38 21.796875 38 
C 26.90625 38 30 34.0625 30 27.84375 
L 30 24 
C 14 24 4 19.34375 4 11.34375 
C 4 7.203125 6.5 -1 14.796875 -1 
C 16.296875 -1 24.40625 -1 30.203125 3.390625 
L 30.203125 -0.296875 
L 37.59375 -0.296875 
z
M 30 12.75 
C 30 10.953125 30 8.5625 27 6.78125 
C 24.40625 5.078125 21.09375 5.078125 19.703125 5.078125 
C 14.703125 5.078125 11.296875 7.984375 11.296875 11.625 
C 11.296875 18.921875 26.90625 18.921875 30 18.921875 
z
" id="CMSS17-97"/>
      <path d="M 32.203125 41.046875 
C 26.296875 43.859375 21.703125 43.859375 18.703125 43.859375 
C 11.59375 43.859375 3.09375 41.375 3.09375 31.296875 
C 3.09375 21.234375 14.09375 19.03125 17.09375 18.421875 
C 21.703125 17.53125 26.796875 16.53125 26.796875 11.5625 
C 26.796875 5.265625 19.59375 5.265625 18.296875 5.265625 
C 14.296875 5.265625 8.796875 6.359375 3.796875 9.96875 
L 2.59375 3.28125 
C 8.296875 0 13.796875 -1 18.40625 -1 
C 30.703125 -1 33.796875 6.5 33.796875 12.203125 
C 33.796875 17.09375 31 20.390625 29.09375 21.890625 
C 25.796875 24.5 24.59375 24.796875 16.40625 26.5 
C 15 26.703125 10.09375 27.796875 10.09375 32.28125 
C 10.09375 38 16.40625 38 17.796875 38 
C 24.296875 38 28.296875 35.984375 31 34.5 
z
" id="CMSS17-115"/>
      <path d="M 16.796875 37 
L 27.703125 37 
L 27.703125 42.765625 
L 16.59375 42.765625 
L 16.59375 55.90625 
C 16.59375 61.234375 19 63.9375 22.203125 63.9375 
C 24.90625 63.9375 27.40625 62.828125 27.703125 62.640625 
L 27.703125 69.203125 
C 26.90625 69.40625 24.59375 70 22.203125 70 
C 14.703125 70 9.40625 62.390625 9.40625 52.6875 
L 9.40625 42.765625 
L 2.5 42.765625 
L 2.5 37 
L 9.40625 37 
L 9.40625 0 
L 16.796875 0 
z
M 42.703125 69.203125 
L 35.296875 69.203125 
L 35.296875 0 
L 42.703125 0 
z
" id="CMSS17-13"/>
      <path d="M 62.703125 43 
L 55.09375 43 
L 49.796875 25.015625 
C 48.703125 21.21875 45.59375 10.703125 45.203125 5.796875 
L 45.09375 5.796875 
C 44.90625 8.8125 43.203125 16 40.40625 25.515625 
L 35.296875 43 
L 28.40625 43 
L 23.40625 25.90625 
C 20.90625 17.203125 19 9.796875 18.796875 5.796875 
L 18.703125 5.796875 
C 18.296875 11.703125 14.203125 25.515625 13.59375 27.703125 
L 9.09375 43 
L 1.296875 43 
L 14.296875 0 
L 21.90625 0 
C 27.09375 17.125 31.09375 30.359375 31.40625 37.03125 
C 31.59375 33.75 33.296875 26.671875 34.296875 23.1875 
L 40.90625 0 
L 49.703125 0 
z
" id="CMSS17-119"/>
     </defs>
     <g style="fill:#262626;" transform="translate(223.972871 114.895421)scale(0.12 -0.12)">
      <use transform="scale(0.996264)" xlink:href="#CMSS17-53"/>
      <use transform="translate(46.843624 0)scale(0.996264)" xlink:href="#CMSS17-48"/>
      <use transform="translate(93.687247 0)scale(0.996264)" xlink:href="#CMSS17-48"/>
      <use transform="translate(140.530871 0)scale(0.996264)" xlink:href="#CMSS17-48"/>
      <use transform="translate(218.603607 0)scale(0.996264)" xlink:href="#CMSS17-102"/>
      <use transform="translate(247.230266 0)scale(0.996264)" xlink:href="#CMSS17-97"/>
      <use transform="translate(292.152186 0)scale(0.996264)" xlink:href="#CMSS17-115"/>
      <use transform="translate(328.065728 0)scale(0.996264)" xlink:href="#CMSS17-116"/>
      <use transform="translate(361.897295 0)scale(0.996264)" xlink:href="#CMSS17-13"/>
      <use transform="translate(412.024032 0)scale(0.996264)" xlink:href="#CMSS17-111"/>
      <use transform="translate(456.265202 0)scale(0.996264)" xlink:href="#CMSS17-119"/>
     </g>
    </g>
    <g id="line2d_20">
     <path d="M 190.372871 127.420017 
L 214.372871 127.420017 
" style="fill:none;stroke:#ff7f0e;stroke-linecap:round;stroke-width:1.5;"/>
    </g>
    <g id="line2d_21">
     <g>
      <use style="fill:#ff7f0e;stroke:#ff7f0e;stroke-linejoin:bevel;" x="202.372871" xlink:href="#made26a5bcd" y="127.420017"/>
     </g>
    </g>
    <g id="text_11">
     <!-- 5000 C++ thread -->
     <defs>
      <path d="M 38.296875 23.515625 
L 64.703125 23.515625 
C 66.09375 23.515625 67.796875 23.515625 67.796875 25.203125 
C 67.796875 27 66.203125 27 64.703125 27 
L 38.296875 27 
L 38.296875 53.328125 
C 38.296875 54.71875 38.296875 56.421875 36.59375 56.421875 
C 34.796875 56.421875 34.796875 54.828125 34.796875 53.328125 
L 34.796875 27 
L 8.296875 27 
C 6.90625 27 5.203125 27 5.203125 25.3125 
C 5.203125 23.515625 6.796875 23.515625 8.296875 23.515625 
L 34.796875 23.515625 
L 34.796875 -2.90625 
C 34.796875 -4.296875 34.796875 -6 36.5 -6 
C 38.296875 -6 38.296875 -4.40625 38.296875 -2.90625 
z
" id="CMSS17-43"/>
      <path d="M 40.90625 29.546875 
C 40.90625 35.8125 39.40625 44.0625 28.09375 44.0625 
C 21.796875 44.0625 17.703125 40.984375 14.796875 37.609375 
L 14.796875 69.5 
L 7.40625 69.5 
L 7.40625 0.5 
L 15 0.5 
L 15 24.578125 
C 15 30.828125 17.40625 38 24.203125 38 
C 33 38 33.296875 32.125 33.296875 28.734375 
L 33.296875 0.5 
L 40.90625 0.5 
z
" id="CMSS17-104"/>
      <path d="M 14.90625 21.296875 
C 14.90625 30.703125 21.796875 37 30.59375 37 
L 30.59375 43.578125 
C 24.203125 43.578125 18.203125 40.390625 14.59375 35.203125 
L 14.59375 43.09375 
L 7.5 43.09375 
L 7.5 0 
L 14.90625 0 
z
" id="CMSS17-114"/>
      <path d="M 40.796875 69 
L 33.40625 69 
L 33.40625 38.09375 
C 30.296875 40.671875 25.203125 43.0625 19.59375 43.0625 
C 10.5 43.0625 3.296875 33.296875 3.296875 21.046875 
C 3.296875 8.78125 10.40625 -1 19.296875 -1 
C 26.203125 -1 30.796875 2.6875 33.203125 4.78125 
L 33.203125 -0.203125 
L 40.796875 -0.203125 
z
M 33.203125 13.0625 
C 33.203125 11.671875 33.203125 10.203125 30.09375 7.53125 
C 28.09375 5.859375 25.703125 5.078125 23.40625 5.078125 
C 18 5.078125 10.90625 9 10.90625 20.9375 
C 10.90625 33.34375 18.90625 37 24.40625 37 
C 28.09375 37 31.09375 35.21875 33.203125 32.265625 
z
" id="CMSS17-100"/>
     </defs>
     <g style="fill:#262626;" transform="translate(223.972871 131.620017)scale(0.12 -0.12)">
      <use transform="scale(0.996264)" xlink:href="#CMSS17-53"/>
      <use transform="translate(46.843624 0)scale(0.996264)" xlink:href="#CMSS17-48"/>
      <use transform="translate(93.687247 0)scale(0.996264)" xlink:href="#CMSS17-48"/>
      <use transform="translate(140.530871 0)scale(0.996264)" xlink:href="#CMSS17-48"/>
      <use transform="translate(218.603607 0)scale(0.996264)" xlink:href="#CMSS17-67"/>
      <use transform="translate(278.459378 0)scale(0.996264)" xlink:href="#CMSS17-43"/>
      <use transform="translate(351.327313 0)scale(0.996264)" xlink:href="#CMSS17-43"/>
      <use transform="translate(455.424361 0)scale(0.996264)" xlink:href="#CMSS17-116"/>
      <use transform="translate(489.255927 0)scale(0.996264)" xlink:href="#CMSS17-104"/>
      <use transform="translate(537.460871 0)scale(0.996264)" xlink:href="#CMSS17-114"/>
      <use transform="translate(569.370643 0)scale(0.996264)" xlink:href="#CMSS17-101"/>
      <use transform="translate(611.009465 0)scale(0.996264)" xlink:href="#CMSS17-97"/>
      <use transform="translate(655.931386 0)scale(0.996264)" xlink:href="#CMSS17-100"/>
     </g>
    </g>
    <g id="line2d_22">
     <path d="M 190.372871 144.144613 
L 214.372871 144.144613 
" style="fill:none;stroke:#800080;stroke-linecap:round;stroke-width:1.5;"/>
    </g>
    <g id="line2d_23">
     <g>
      <use style="fill:#800080;stroke:#800080;stroke-linejoin:bevel;" x="202.372871" xlink:href="#m7ffb20cd40" y="144.144613"/>
     </g>
    </g>
    <g id="text_12">
     <!-- cuda -->
     <defs>
      <path d="M 38.5 39.703125 
C 38.5 40.390625 33.90625 42.40625 32.703125 42.796875 
C 29.40625 44 25.203125 44 24.09375 44 
C 11.09375 44 3.296875 32.703125 3.296875 21.296875 
C 3.296875 9.296875 12 -1 23.703125 -1 
C 30.40625 -1 35.203125 1.1875 39.09375 3.78125 
L 38.5 10.375 
C 34.203125 7.078125 29.203125 5.265625 23.796875 5.265625 
C 16 5.265625 10.90625 12.09375 10.90625 21.390625 
C 10.90625 28.609375 14.203125 37.71875 24.203125 37.71875 
C 29.703125 37.71875 32.796875 36.609375 37.40625 33.515625 
z
" id="CMSS17-99"/>
      <path d="M 40.90625 42.796875 
L 33.296875 42.796875 
L 33.296875 15.1875 
C 33.296875 7.78125 27.90625 4.78125 22.203125 4.78125 
C 15.59375 4.78125 15 6.984375 15 11.078125 
L 15 42.796875 
L 7.40625 42.796875 
L 7.40625 10.59375 
C 7.40625 2.796875 10.09375 -1 17 -1 
C 20.40625 -1 28.09375 -0.203125 33.5 4.78125 
L 33.5 0 
L 40.90625 0 
z
" id="CMSS17-117"/>
     </defs>
     <g style="fill:#262626;" transform="translate(223.972871 148.344613)scale(0.12 -0.12)">
      <use transform="scale(0.996264)" xlink:href="#CMSS17-99"/>
      <use transform="translate(41.638822 0)scale(0.996264)" xlink:href="#CMSS17-117"/>
      <use transform="translate(89.843765 0)scale(0.996264)" xlink:href="#CMSS17-100"/>
      <use transform="translate(138.048708 0)scale(0.996264)" xlink:href="#CMSS17-97"/>
     </g>
    </g>
    <g id="line2d_24">
     <path d="M 190.372871 160.869208 
L 214.372871 160.869208 
" style="fill:none;stroke:#008000;stroke-dasharray:6.4,1.6,1,1.6;stroke-dashoffset:0;"/>
    </g>
    <g id="line2d_25"/>
    <g id="text_13">
     <!-- sequential -->
     <defs>
      <path d="M 40.796875 44 
L 33.40625 44 
L 33.40625 37.9375 
C 33 38.4375 28.40625 44 20.59375 44 
C 11.5 44 3.296875 34.8125 3.296875 21.859375 
C 3.296875 9.890625 10.203125 -0.078125 19.203125 -0.078125 
C 23.40625 -0.078125 28.703125 1.421875 33.203125 5.703125 
L 33.203125 -19 
L 40.796875 -19 
z
M 33.40625 14.28125 
C 33.40625 13 33.40625 11.21875 30.296875 8.65625 
C 29.5 7.96875 27.296875 6 23.5 6 
C 16.40625 6 10.90625 13.28125 10.90625 21.859375 
C 10.90625 31.421875 17.59375 37.734375 24.40625 37.734375 
C 30.09375 37.734375 33.40625 32.203125 33.40625 28.078125 
z
" id="CMSS17-113"/>
     </defs>
     <g style="fill:#262626;" transform="translate(223.972871 165.069208)scale(0.12 -0.12)">
      <use transform="scale(0.996264)" xlink:href="#CMSS17-115"/>
      <use transform="translate(35.913542 0)scale(0.996264)" xlink:href="#CMSS17-101"/>
      <use transform="translate(77.552364 0)scale(0.996264)" xlink:href="#CMSS17-113"/>
      <use transform="translate(125.757307 0)scale(0.996264)" xlink:href="#CMSS17-117"/>
      <use transform="translate(173.96225 0)scale(0.996264)" xlink:href="#CMSS17-101"/>
      <use transform="translate(215.601072 0)scale(0.996264)" xlink:href="#CMSS17-110"/>
      <use transform="translate(263.806016 0)scale(0.996264)" xlink:href="#CMSS17-116"/>
      <use transform="translate(297.637582 0)scale(0.996264)" xlink:href="#CMSS17-105"/>
      <use transform="translate(319.818305 0)scale(0.996264)" xlink:href="#CMSS17-97"/>
      <use transform="translate(364.740226 0)scale(0.996264)" xlink:href="#CMSS17-108"/>
     </g>
    </g>
    <g id="line2d_26">
     <path d="M 190.372871 177.593804 
L 214.372871 177.593804 
" style="fill:none;opacity:0.6;stroke:#000000;stroke-dasharray:6.475,2.8;stroke-dashoffset:0;stroke-width:1.75;"/>
    </g>
    <g id="line2d_27"/>
    <g id="text_14">
     <!-- ideal -->
     <g style="fill:#262626;" transform="translate(223.972871 181.793804)scale(0.12 -0.12)">
      <use transform="scale(0.996264)" xlink:href="#CMSS17-105"/>
      <use transform="translate(22.180723 0)scale(0.996264)" xlink:href="#CMSS17-100"/>
      <use transform="translate(70.385666 0)scale(0.996264)" xlink:href="#CMSS17-101"/>
      <use transform="translate(112.024488 0)scale(0.996264)" xlink:href="#CMSS17-97"/>
      <use transform="translate(156.946409 0)scale(0.996264)" xlink:href="#CMSS17-108"/>
     </g>
    </g>
   </g>
  </g>
  <g id="axes_2">
   <g id="patch_7">
    <path d="M 244.662857 154.711149 
L 414.72 154.711149 
L 414.72 41.472 
L 244.662857 41.472 
z
" style="fill:#ffffff;"/>
   </g>
   <g id="matplotlib.axis_3">
    <g id="xtick_4">
     <g id="line2d_28">
      <path clip-path="url(#p33134eb56d)" d="M 245.671101 154.711149 
L 245.671101 41.472 
" style="fill:none;stroke:#cccccc;stroke-linecap:round;stroke-width:0.8;"/>
     </g>
     <g id="line2d_29"/>
     <g id="text_15">
      <!-- $0$ -->
      <g style="fill:#262626;" transform="translate(242.744606 166.513329)scale(0.12 -0.12)">
       <use transform="scale(0.996264)" xlink:href="#CMR17-48"/>
      </g>
     </g>
    </g>
    <g id="xtick_5">
     <g id="line2d_30">
      <path clip-path="url(#p33134eb56d)" d="M 312.887363 154.711149 
L 312.887363 41.472 
" style="fill:none;stroke:#cccccc;stroke-linecap:round;stroke-width:0.8;"/>
     </g>
     <g id="line2d_31"/>
     <g id="text_16">
      <!-- $10$ -->
      <g style="fill:#262626;" transform="translate(307.034373 166.513329)scale(0.12 -0.12)">
       <use transform="scale(0.996264)" xlink:href="#CMR17-49"/>
       <use transform="translate(45.690477 0)scale(0.996264)" xlink:href="#CMR17-48"/>
      </g>
     </g>
    </g>
    <g id="xtick_6">
     <g id="line2d_32">
      <path clip-path="url(#p33134eb56d)" d="M 380.103625 154.711149 
L 380.103625 41.472 
" style="fill:none;stroke:#cccccc;stroke-linecap:round;stroke-width:0.8;"/>
     </g>
     <g id="line2d_33"/>
     <g id="text_17">
      <!-- $20$ -->
      <g style="fill:#262626;" transform="translate(374.250635 166.513329)scale(0.12 -0.12)">
       <use transform="scale(0.996264)" xlink:href="#CMR17-50"/>
       <use transform="translate(45.690477 0)scale(0.996264)" xlink:href="#CMR17-48"/>
      </g>
     </g>
    </g>
    <g id="text_18">
     <!-- $\textit{Threads}$ -->
     <g style="fill:#262626;" transform="translate(310.058342 181.140104)scale(0.12 -0.12)">
      <use transform="scale(0.996264)" xlink:href="#CMSSI17-84"/>
      <use transform="translate(63.819454 0)scale(0.996264)" xlink:href="#CMSSI17-104"/>
      <use transform="translate(112.024397 0)scale(0.996264)" xlink:href="#CMSSI17-114"/>
      <use transform="translate(143.93417 0)scale(0.996264)" xlink:href="#CMSSI17-101"/>
      <use transform="translate(185.572992 0)scale(0.996264)" xlink:href="#CMSSI17-97"/>
      <use transform="translate(230.494912 0)scale(0.996264)" xlink:href="#CMSSI17-100"/>
      <use transform="translate(278.699855 0)scale(0.996264)" xlink:href="#CMSSI17-115"/>
     </g>
    </g>
   </g>
   <g id="matplotlib.axis_4">
    <g id="ytick_4">
     <g id="line2d_34">
      <path clip-path="url(#p33134eb56d)" d="M 244.662857 154.039771 
L 414.72 154.039771 
" style="fill:none;stroke:#cccccc;stroke-linecap:round;stroke-width:0.8;"/>
     </g>
     <g id="line2d_35"/>
     <g id="text_19">
      <!-- $0$ -->
      <g style="fill:#262626;" transform="translate(235.309867 158.19086)scale(0.12 -0.12)">
       <use transform="scale(0.996264)" xlink:href="#CMR17-48"/>
      </g>
     </g>
    </g>
    <g id="ytick_5">
     <g id="line2d_36">
      <path clip-path="url(#p33134eb56d)" d="M 244.662857 109.281214 
L 414.72 109.281214 
" style="fill:none;stroke:#cccccc;stroke-linecap:round;stroke-width:0.8;"/>
     </g>
     <g id="line2d_37"/>
     <g id="text_20">
      <!-- $10$ -->
      <g style="fill:#262626;" transform="translate(229.456877 113.432304)scale(0.12 -0.12)">
       <use transform="scale(0.996264)" xlink:href="#CMR17-49"/>
       <use transform="translate(45.690477 0)scale(0.996264)" xlink:href="#CMR17-48"/>
      </g>
     </g>
    </g>
    <g id="ytick_6">
     <g id="line2d_38">
      <path clip-path="url(#p33134eb56d)" d="M 244.662857 64.522657 
L 414.72 64.522657 
" style="fill:none;stroke:#cccccc;stroke-linecap:round;stroke-width:0.8;"/>
     </g>
     <g id="line2d_39"/>
     <g id="text_21">
      <!-- $20$ -->
      <g style="fill:#262626;" transform="translate(229.456877 68.673747)scale(0.12 -0.12)">
       <use transform="scale(0.996264)" xlink:href="#CMR17-50"/>
       <use transform="translate(45.690477 0)scale(0.996264)" xlink:href="#CMR17-48"/>
      </g>
     </g>
    </g>
    <g id="text_22">
     <!-- $\textit{Scalability}$ -->
     <defs>
      <path d="M 29.59375 69 
L 22.203125 69 
L 7.40625 0 
L 14.796875 0 
z
" id="CMSSI17-108"/>
      <path d="M 29.703125 69 
L 22.296875 69 
L 7.5 -0.203125 
L 15.09375 -0.203125 
L 16 4.28125 
C 18.90625 0.796875 23.09375 -1 27.5 -1 
C 38.703125 -1 50.40625 12.34375 50.40625 27.953125 
C 50.40625 34.875 47.40625 43.0625 39.40625 43.0625 
C 36.296875 43.0625 30 42.375 23.09375 37.796875 
z
M 22 31.96875 
C 25.703125 35.71875 29.59375 37 32.796875 37 
C 38 37 42.59375 33.734375 42.59375 26.25 
C 42.59375 15.71875 35.59375 5.078125 25 5.078125 
C 18.90625 5.078125 17.5 10.390625 17.5 10.890625 
C 17.5 11.375 17.59375 11.78125 17.703125 12.15625 
z
" id="CMSSI17-98"/>
      <path d="M 29.203125 65.359375 
L 20.796875 65.359375 
L 19.09375 57 
L 27.5 57 
z
M 7.40625 0 
L 14.796875 0 
L 23.90625 42.6875 
L 16.5 42.6875 
z
" id="CMSSI17-105"/>
      <path d="M 24.59375 37 
L 37.59375 37 
L 38.796875 42.765625 
L 25.796875 42.765625 
L 28.5 55 
L 21.40625 55 
L 18.703125 42.765625 
L 10.796875 42.765625 
L 9.59375 37 
L 17.296875 37 
C 16.59375 33.59375 12.703125 15.5 12.40625 13.890625 
C 11.5 9.5 11.296875 8.609375 11.296875 6.390625 
C 11.296875 0.09375 14.296875 -1 17.203125 -1 
C 24.203125 -1 30 1.78125 31.90625 2.6875 
L 31.59375 8.5625 
C 28.296875 6.171875 25 5.265625 22.5 5.265625 
C 20.203125 5.265625 19.09375 6.671875 19.09375 9.6875 
C 19.09375 10.78125 19.203125 11.375 19.40625 12.171875 
z
" id="CMSSI17-116"/>
      <path d="M 50.90625 43 
L 43.09375 43 
C 40.90625 39.125 31.40625 22.59375 31.203125 22.109375 
C 27.796875 15.9375 24.59375 9.65625 23.5 5.78125 
C 23.5 5.78125 23.703125 7.96875 23.703125 9.0625 
C 23.703125 16.828125 20.796875 31.359375 18.5 43 
L 10.5 43 
L 19 0.203125 
C 17.40625 -2.578125 15.90625 -5.265625 14.203125 -7.953125 
C 10.703125 -13.828125 9.09375 -13.828125 7.59375 -13.828125 
C 7 -13.828125 3.5 -13.828125 0.59375 -12.640625 
L -0.296875 -19.203125 
C 1.796875 -19.703125 4.296875 -20 6.40625 -20 
C 8.703125 -20 13.90625 -20 20.703125 -8.453125 
z
" id="CMSSI17-121"/>
     </defs>
     <g style="fill:#262626;" transform="translate(223.132281 122.686523)rotate(-90)scale(0.12 -0.12)">
      <use transform="scale(0.996264)" xlink:href="#CMSSI17-83"/>
      <use transform="translate(52.048516 0)scale(0.996264)" xlink:href="#CMSSI17-99"/>
      <use transform="translate(93.687338 0)scale(0.996264)" xlink:href="#CMSSI17-97"/>
      <use transform="translate(138.609259 0)scale(0.996264)" xlink:href="#CMSSI17-108"/>
      <use transform="translate(160.789982 0)scale(0.996264)" xlink:href="#CMSSI17-97"/>
      <use transform="translate(205.711903 0)scale(0.996264)" xlink:href="#CMSSI17-98"/>
      <use transform="translate(253.916846 0)scale(0.996264)" xlink:href="#CMSSI17-105"/>
      <use transform="translate(276.097569 0)scale(0.996264)" xlink:href="#CMSSI17-108"/>
      <use transform="translate(298.278292 0)scale(0.996264)" xlink:href="#CMSSI17-105"/>
      <use transform="translate(320.459015 0)scale(0.996264)" xlink:href="#CMSSI17-116"/>
      <use transform="translate(351.688128 0)scale(0.996264)" xlink:href="#CMSSI17-121"/>
     </g>
    </g>
   </g>
   <g id="line2d_40">
    <path clip-path="url(#p33134eb56d)" d="M 252.392727 149.563915 
L 259.114353 145.340947 
L 272.557606 137.490675 
L 299.444111 133.642102 
L 326.330615 133.991139 
L 353.21712 133.901347 
L 380.103625 133.781449 
L 406.99013 145.212236 
" style="fill:none;opacity:0.8;stroke:#1f77b4;stroke-linecap:round;stroke-width:1.5;"/>
    <defs>
     <path d="M -0 4.242641 
L 2.545584 0 
L 0 -4.242641 
L -2.545584 -0 
z
" id="mc51e59bacf" style="stroke:#1f77b4;stroke-linejoin:miter;"/>
    </defs>
    <g clip-path="url(#p33134eb56d)">
     <use style="fill:#1f77b4;opacity:0.8;stroke:#1f77b4;stroke-linejoin:miter;" x="252.392727" xlink:href="#mc51e59bacf" y="149.563915"/>
     <use style="fill:#1f77b4;opacity:0.8;stroke:#1f77b4;stroke-linejoin:miter;" x="259.114353" xlink:href="#mc51e59bacf" y="145.340947"/>
     <use style="fill:#1f77b4;opacity:0.8;stroke:#1f77b4;stroke-linejoin:miter;" x="272.557606" xlink:href="#mc51e59bacf" y="137.490675"/>
     <use style="fill:#1f77b4;opacity:0.8;stroke:#1f77b4;stroke-linejoin:miter;" x="299.444111" xlink:href="#mc51e59bacf" y="133.642102"/>
     <use style="fill:#1f77b4;opacity:0.8;stroke:#1f77b4;stroke-linejoin:miter;" x="326.330615" xlink:href="#mc51e59bacf" y="133.991139"/>
     <use style="fill:#1f77b4;opacity:0.8;stroke:#1f77b4;stroke-linejoin:miter;" x="353.21712" xlink:href="#mc51e59bacf" y="133.901347"/>
     <use style="fill:#1f77b4;opacity:0.8;stroke:#1f77b4;stroke-linejoin:miter;" x="380.103625" xlink:href="#mc51e59bacf" y="133.781449"/>
     <use style="fill:#1f77b4;opacity:0.8;stroke:#1f77b4;stroke-linejoin:miter;" x="406.99013" xlink:href="#mc51e59bacf" y="145.212236"/>
    </g>
   </g>
   <g id="line2d_41">
    <path clip-path="url(#p33134eb56d)" d="M 252.392727 149.563915 
L 259.114353 145.629837 
L 272.557606 137.540066 
L 299.444111 134.862168 
L 326.330615 136.904018 
L 353.21712 138.863044 
L 380.103625 138.788494 
L 406.99013 143.521592 
" style="fill:none;opacity:0.8;stroke:#ff7f0e;stroke-linecap:round;stroke-width:1.5;"/>
    <defs>
     <path d="M -0 4.242641 
L 2.545584 0 
L 0 -4.242641 
L -2.545584 -0 
z
" id="mba9140ca80" style="stroke:#ff7f0e;stroke-linejoin:miter;"/>
    </defs>
    <g clip-path="url(#p33134eb56d)">
     <use style="fill:#ff7f0e;opacity:0.8;stroke:#ff7f0e;stroke-linejoin:miter;" x="252.392727" xlink:href="#mba9140ca80" y="149.563915"/>
     <use style="fill:#ff7f0e;opacity:0.8;stroke:#ff7f0e;stroke-linejoin:miter;" x="259.114353" xlink:href="#mba9140ca80" y="145.629837"/>
     <use style="fill:#ff7f0e;opacity:0.8;stroke:#ff7f0e;stroke-linejoin:miter;" x="272.557606" xlink:href="#mba9140ca80" y="137.540066"/>
     <use style="fill:#ff7f0e;opacity:0.8;stroke:#ff7f0e;stroke-linejoin:miter;" x="299.444111" xlink:href="#mba9140ca80" y="134.862168"/>
     <use style="fill:#ff7f0e;opacity:0.8;stroke:#ff7f0e;stroke-linejoin:miter;" x="326.330615" xlink:href="#mba9140ca80" y="136.904018"/>
     <use style="fill:#ff7f0e;opacity:0.8;stroke:#ff7f0e;stroke-linejoin:miter;" x="353.21712" xlink:href="#mba9140ca80" y="138.863044"/>
     <use style="fill:#ff7f0e;opacity:0.8;stroke:#ff7f0e;stroke-linejoin:miter;" x="380.103625" xlink:href="#mba9140ca80" y="138.788494"/>
     <use style="fill:#ff7f0e;opacity:0.8;stroke:#ff7f0e;stroke-linejoin:miter;" x="406.99013" xlink:href="#mba9140ca80" y="143.521592"/>
    </g>
   </g>
   <g id="line2d_42">
    <path clip-path="url(#p33134eb56d)" d="M 252.392727 149.563915 
L 255.547776 147.463003 
L 258.702825 145.362091 
L 261.857874 143.261179 
L 265.012923 141.160267 
L 268.167972 139.059356 
L 271.323021 136.958444 
L 274.478071 134.857532 
L 277.63312 132.75662 
L 280.788169 130.655708 
L 283.943218 128.554796 
L 287.098267 126.453884 
L 290.253316 124.352973 
L 293.408365 122.252061 
L 296.563414 120.151149 
L 299.718463 118.050237 
L 302.873512 115.949325 
L 306.028561 113.848413 
L 309.18361 111.747502 
L 312.338659 109.64659 
L 315.493708 107.545678 
L 318.648757 105.444766 
L 321.803806 103.343854 
L 324.958855 101.242942 
L 328.113904 99.14203 
L 331.268953 97.041119 
L 334.424002 94.940207 
L 337.579051 92.839295 
L 340.7341 90.738383 
L 343.889149 88.637471 
L 347.044198 86.536559 
L 350.199247 84.435647 
L 353.354296 82.334736 
L 356.509345 80.233824 
L 359.664394 78.132912 
L 362.819443 76.032 
L 365.974492 73.931088 
L 369.129541 71.830176 
L 372.284591 69.729264 
L 375.43964 67.628353 
L 378.594689 65.527441 
L 381.749738 63.426529 
L 384.904787 61.325617 
L 388.059836 59.224705 
L 391.214885 57.123793 
L 394.369934 55.022881 
L 397.524983 52.92197 
L 400.680032 50.821058 
L 403.835081 48.720146 
L 406.99013 46.619234 
" style="fill:none;opacity:0.6;stroke:#000000;stroke-dasharray:6.475,2.8;stroke-dashoffset:0;stroke-width:1.75;"/>
   </g>
   <g id="patch_8">
    <path d="M 244.662857 154.711149 
L 244.662857 41.472 
" style="fill:none;stroke:#262626;stroke-linecap:square;stroke-linejoin:miter;stroke-width:1.25;"/>
   </g>
   <g id="patch_9">
    <path d="M 414.72 154.711149 
L 414.72 41.472 
" style="fill:none;stroke:#262626;stroke-linecap:square;stroke-linejoin:miter;stroke-width:1.25;"/>
   </g>
   <g id="patch_10">
    <path d="M 244.662857 154.711149 
L 414.72 154.711149 
" style="fill:none;stroke:#262626;stroke-linecap:square;stroke-linejoin:miter;stroke-width:1.25;"/>
   </g>
   <g id="patch_11">
    <path d="M 244.662857 41.472 
L 414.72 41.472 
" style="fill:none;stroke:#262626;stroke-linecap:square;stroke-linejoin:miter;stroke-width:1.25;"/>
   </g>
   <g id="text_23">
    <!-- Scalability -->
    <defs>
     <path d="M 43.703125 65.140625 
C 39.296875 67.71875 34.5 70 26.40625 70 
C 13.5 70 5.203125 60.609375 5.203125 51.03125 
C 5.203125 47.265625 6.296875 43.015625 10.203125 38.671875 
C 14.09375 34.3125 18.5 33.140625 24.09375 31.765625 
C 26.40625 31.15625 30.296875 30.0625 31 29.78125 
C 36.59375 27.609375 39.296875 22.5625 39.296875 17.8125 
C 39.296875 11.59375 34.40625 4.96875 25.703125 4.96875 
C 22.703125 4.96875 13.90625 4.96875 5.59375 12.796875 
L 4.203125 4.96875 
C 12.40625 -1 21.296875 -2 25.796875 -2 
C 38.09375 -2 46.90625 7.625 46.90625 18.53125 
C 46.90625 22.5 45.703125 27.546875 41.5 32.203125 
C 37.40625 36.671875 33.796875 37.65625 25.59375 39.828125 
C 20.90625 41.03125 17.90625 41.828125 15.40625 44.890625 
C 13.703125 47.078125 12.796875 49.15625 12.796875 51.828125 
C 12.796875 57.390625 17.59375 63.4375 26.40625 63.4375 
C 30.796875 63.4375 36.5 62.53125 42.296875 57.1875 
z
" id="CMSS17-83"/>
     <path d="M 14.90625 69 
L 7.5 69 
L 7.5 -0.203125 
L 15.09375 -0.203125 
L 15.09375 4.28125 
C 18.90625 0.59375 23.5 -1 27.59375 -1 
C 37.203125 -1 45 8.578125 45 21.125 
C 45 32.59375 39 43.0625 30.09375 43.0625 
C 23.796875 43.0625 18.203125 40.484375 14.90625 37.796875 
z
M 15.09375 31.96875 
C 17.296875 34.71875 20.40625 37 24.796875 37 
C 30.703125 37 37.40625 32.765625 37.40625 21.125 
C 37.40625 8.71875 29.40625 5.078125 23.90625 5.078125 
C 21.90625 5.078125 19.796875 5.5625 17.796875 7.25 
C 15.09375 9.609375 15.09375 11.078125 15.09375 12.453125 
z
" id="CMSS17-98"/>
     <path d="M 41.796875 43 
L 34 43 
C 25.5 20.21875 22.59375 10.96875 22.40625 5.984375 
L 22.296875 5.984375 
C 22 10.875 17.59375 22.8125 14.09375 31.359375 
L 9.40625 43 
L 1.296875 43 
L 19 0.203125 
C 17.90625 -2.78125 16.296875 -7.265625 15.796875 -8.265625 
C 13.59375 -13.828125 12.09375 -13.828125 10.5 -13.828125 
C 10.09375 -13.828125 6.90625 -13.828125 3.296875 -12.640625 
L 3.90625 -19.203125 
C 6.40625 -19.703125 8.90625 -20 10.703125 -20 
C 13.203125 -20 18.203125 -20 22.796875 -7.765625 
z
" id="CMSS17-121"/>
    </defs>
    <g style="fill:#262626;" transform="translate(305.09648 35.472)scale(0.12 -0.12)">
     <use transform="scale(0.996264)" xlink:href="#CMSS17-83"/>
     <use transform="translate(52.048516 0)scale(0.996264)" xlink:href="#CMSS17-99"/>
     <use transform="translate(93.687338 0)scale(0.996264)" xlink:href="#CMSS17-97"/>
     <use transform="translate(138.609259 0)scale(0.996264)" xlink:href="#CMSS17-108"/>
     <use transform="translate(160.789982 0)scale(0.996264)" xlink:href="#CMSS17-97"/>
     <use transform="translate(205.711903 0)scale(0.996264)" xlink:href="#CMSS17-98"/>
     <use transform="translate(253.916846 0)scale(0.996264)" xlink:href="#CMSS17-105"/>
     <use transform="translate(276.097569 0)scale(0.996264)" xlink:href="#CMSS17-108"/>
     <use transform="translate(298.278292 0)scale(0.996264)" xlink:href="#CMSS17-105"/>
     <use transform="translate(320.459015 0)scale(0.996264)" xlink:href="#CMSS17-116"/>
     <use transform="translate(351.688128 0)scale(0.996264)" xlink:href="#CMSS17-121"/>
    </g>
   </g>
  </g>
  <g id="axes_3">
   <g id="patch_12">
    <path d="M 57.6 307.584 
L 227.657143 307.584 
L 227.657143 194.344851 
L 57.6 194.344851 
z
" style="fill:#ffffff;"/>
   </g>
   <g id="matplotlib.axis_5">
    <g id="xtick_7">
     <g id="line2d_43">
      <path clip-path="url(#p135dd30f41)" d="M 58.608244 307.584 
L 58.608244 194.344851 
" style="fill:none;stroke:#cccccc;stroke-linecap:round;stroke-width:0.8;"/>
     </g>
     <g id="line2d_44"/>
     <g id="text_24">
      <!-- $0$ -->
      <g style="fill:#262626;" transform="translate(55.681749 319.38618)scale(0.12 -0.12)">
       <use transform="scale(0.996264)" xlink:href="#CMR17-48"/>
      </g>
     </g>
    </g>
    <g id="xtick_8">
     <g id="line2d_45">
      <path clip-path="url(#p135dd30f41)" d="M 125.824506 307.584 
L 125.824506 194.344851 
" style="fill:none;stroke:#cccccc;stroke-linecap:round;stroke-width:0.8;"/>
     </g>
     <g id="line2d_46"/>
     <g id="text_25">
      <!-- $10$ -->
      <g style="fill:#262626;" transform="translate(119.971516 319.38618)scale(0.12 -0.12)">
       <use transform="scale(0.996264)" xlink:href="#CMR17-49"/>
       <use transform="translate(45.690477 0)scale(0.996264)" xlink:href="#CMR17-48"/>
      </g>
     </g>
    </g>
    <g id="xtick_9">
     <g id="line2d_47">
      <path clip-path="url(#p135dd30f41)" d="M 193.040768 307.584 
L 193.040768 194.344851 
" style="fill:none;stroke:#cccccc;stroke-linecap:round;stroke-width:0.8;"/>
     </g>
     <g id="line2d_48"/>
     <g id="text_26">
      <!-- $20$ -->
      <g style="fill:#262626;" transform="translate(187.187778 319.38618)scale(0.12 -0.12)">
       <use transform="scale(0.996264)" xlink:href="#CMR17-50"/>
       <use transform="translate(45.690477 0)scale(0.996264)" xlink:href="#CMR17-48"/>
      </g>
     </g>
    </g>
    <g id="text_27">
     <!-- $\textit{Threads}$ -->
     <g style="fill:#262626;" transform="translate(122.995485 334.012955)scale(0.12 -0.12)">
      <use transform="scale(0.996264)" xlink:href="#CMSSI17-84"/>
      <use transform="translate(63.819454 0)scale(0.996264)" xlink:href="#CMSSI17-104"/>
      <use transform="translate(112.024397 0)scale(0.996264)" xlink:href="#CMSSI17-114"/>
      <use transform="translate(143.93417 0)scale(0.996264)" xlink:href="#CMSSI17-101"/>
      <use transform="translate(185.572992 0)scale(0.996264)" xlink:href="#CMSSI17-97"/>
      <use transform="translate(230.494912 0)scale(0.996264)" xlink:href="#CMSSI17-100"/>
      <use transform="translate(278.699855 0)scale(0.996264)" xlink:href="#CMSSI17-115"/>
     </g>
    </g>
   </g>
   <g id="matplotlib.axis_6">
    <g id="ytick_7">
     <g id="line2d_49">
      <path clip-path="url(#p135dd30f41)" d="M 57.6 306.437878 
L 227.657143 306.437878 
" style="fill:none;stroke:#cccccc;stroke-linecap:round;stroke-width:0.8;"/>
     </g>
     <g id="line2d_50"/>
     <g id="text_28">
      <!-- $0$ -->
      <g style="fill:#262626;" transform="translate(48.24701 310.588968)scale(0.12 -0.12)">
       <use transform="scale(0.996264)" xlink:href="#CMR17-48"/>
      </g>
     </g>
    </g>
    <g id="ytick_8">
     <g id="line2d_51">
      <path clip-path="url(#p135dd30f41)" d="M 57.6 261.877131 
L 227.657143 261.877131 
" style="fill:none;stroke:#cccccc;stroke-linecap:round;stroke-width:0.8;"/>
     </g>
     <g id="line2d_52"/>
     <g id="text_29">
      <!-- $10$ -->
      <g style="fill:#262626;" transform="translate(42.394019 266.028221)scale(0.12 -0.12)">
       <use transform="scale(0.996264)" xlink:href="#CMR17-49"/>
       <use transform="translate(45.690477 0)scale(0.996264)" xlink:href="#CMR17-48"/>
      </g>
     </g>
    </g>
    <g id="ytick_9">
     <g id="line2d_53">
      <path clip-path="url(#p135dd30f41)" d="M 57.6 217.316384 
L 227.657143 217.316384 
" style="fill:none;stroke:#cccccc;stroke-linecap:round;stroke-width:0.8;"/>
     </g>
     <g id="line2d_54"/>
     <g id="text_30">
      <!-- $20$ -->
      <g style="fill:#262626;" transform="translate(42.394019 221.467474)scale(0.12 -0.12)">
       <use transform="scale(0.996264)" xlink:href="#CMR17-50"/>
       <use transform="translate(45.690477 0)scale(0.996264)" xlink:href="#CMR17-48"/>
      </g>
     </g>
    </g>
    <g id="text_31">
     <!-- $\textit{Speedup}$ -->
     <defs>
      <path d="M 16 4.28125 
C 17.5 2.390625 21.40625 -1 27.5 -1 
C 39 -1 50.40625 12.703125 50.40625 28.1875 
C 50.40625 33.546875 48.296875 43.265625 39.59375 43.265625 
C 36.796875 43.265625 29.90625 42.578125 23.09375 37.890625 
L 24 42.46875 
L 16.59375 42.46875 
L 3.40625 -19.5 
L 11 -19.5 
z
M 22 32.03125 
C 26 35.90625 30 37 32.703125 37 
C 38.40625 37 42.40625 32.4375 42.40625 25.296875 
C 42.40625 14.203125 33.203125 5.078125 25 5.078125 
C 21.296875 5.078125 18.703125 6.96875 17.5 10.734375 
z
" id="CMSSI17-112"/>
      <path d="M 50 42.5 
L 42.40625 42.5 
L 36.40625 14.5 
C 35.203125 8.734375 29.796875 4.78125 23.296875 4.78125 
C 18.703125 4.78125 17 5.671875 17 8.359375 
C 17 9.15625 17.296875 10.453125 17.296875 10.546875 
L 24.09375 42.5 
L 16.5 42.5 
L 9.59375 10.3125 
C 9.296875 8.9375 9.09375 8.046875 9.09375 5.953125 
C 9.09375 -0.203125 13.5 -1 16.796875 -1 
C 23.203125 -1 29.296875 0.984375 34.5 4.6875 
L 33.5 -0.203125 
L 40.90625 -0.203125 
z
" id="CMSSI17-117"/>
     </defs>
     <g style="fill:#262626;" transform="translate(36.069424 271.591678)rotate(-90)scale(0.12 -0.12)">
      <use transform="scale(0.996264)" xlink:href="#CMSSI17-83"/>
      <use transform="translate(52.048516 0)scale(0.996264)" xlink:href="#CMSSI17-112"/>
      <use transform="translate(102.855898 0)scale(0.996264)" xlink:href="#CMSSI17-101"/>
      <use transform="translate(144.49472 0)scale(0.996264)" xlink:href="#CMSSI17-101"/>
      <use transform="translate(186.133542 0)scale(0.996264)" xlink:href="#CMSSI17-100"/>
      <use transform="translate(234.338485 0)scale(0.996264)" xlink:href="#CMSSI17-117"/>
      <use transform="translate(282.543428 0)scale(0.996264)" xlink:href="#CMSSI17-112"/>
     </g>
    </g>
   </g>
   <g id="line2d_55">
    <path clip-path="url(#p135dd30f41)" d="M 65.32987 302.015157 
L 72.051496 297.842322 
L 85.494749 290.085244 
L 112.381254 286.282359 
L 139.267758 286.627252 
L 166.154263 286.538526 
L 193.040768 286.420051 
L 219.927273 297.715139 
" style="fill:none;opacity:0.8;stroke:#1f77b4;stroke-linecap:round;stroke-width:1.5;"/>
    <defs>
     <path d="M 0 3 
C 0.795609 3 1.55874 2.683901 2.12132 2.12132 
C 2.683901 1.55874 3 0.795609 3 0 
C 3 -0.795609 2.683901 -1.55874 2.12132 -2.12132 
C 1.55874 -2.683901 0.795609 -3 0 -3 
C -0.795609 -3 -1.55874 -2.683901 -2.12132 -2.12132 
C -2.683901 -1.55874 -3 -0.795609 -3 0 
C -3 0.795609 -2.683901 1.55874 -2.12132 2.12132 
C -1.55874 2.683901 -0.795609 3 0 3 
z
" id="m5d8df4dcad" style="stroke:#1f77b4;"/>
    </defs>
    <g clip-path="url(#p135dd30f41)">
     <use style="fill:#1f77b4;opacity:0.8;stroke:#1f77b4;" x="65.32987" xlink:href="#m5d8df4dcad" y="302.015157"/>
     <use style="fill:#1f77b4;opacity:0.8;stroke:#1f77b4;" x="72.051496" xlink:href="#m5d8df4dcad" y="297.842322"/>
     <use style="fill:#1f77b4;opacity:0.8;stroke:#1f77b4;" x="85.494749" xlink:href="#m5d8df4dcad" y="290.085244"/>
     <use style="fill:#1f77b4;opacity:0.8;stroke:#1f77b4;" x="112.381254" xlink:href="#m5d8df4dcad" y="286.282359"/>
     <use style="fill:#1f77b4;opacity:0.8;stroke:#1f77b4;" x="139.267758" xlink:href="#m5d8df4dcad" y="286.627252"/>
     <use style="fill:#1f77b4;opacity:0.8;stroke:#1f77b4;" x="166.154263" xlink:href="#m5d8df4dcad" y="286.538526"/>
     <use style="fill:#1f77b4;opacity:0.8;stroke:#1f77b4;" x="193.040768" xlink:href="#m5d8df4dcad" y="286.420051"/>
     <use style="fill:#1f77b4;opacity:0.8;stroke:#1f77b4;" x="219.927273" xlink:href="#m5d8df4dcad" y="297.715139"/>
    </g>
   </g>
   <g id="line2d_56">
    <path clip-path="url(#p135dd30f41)" d="M 166.154263 288.45839 
" style="fill:none;stroke:#800080;stroke-linecap:round;stroke-width:1.5;"/>
    <defs>
     <path d="M 0 3 
C 0.795609 3 1.55874 2.683901 2.12132 2.12132 
C 2.683901 1.55874 3 0.795609 3 0 
C 3 -0.795609 2.683901 -1.55874 2.12132 -2.12132 
C 1.55874 -2.683901 0.795609 -3 0 -3 
C -0.795609 -3 -1.55874 -2.683901 -2.12132 -2.12132 
C -2.683901 -1.55874 -3 -0.795609 -3 0 
C -3 0.795609 -2.683901 1.55874 -2.12132 2.12132 
C -1.55874 2.683901 -0.795609 3 0 3 
z
" id="m6e2c7f95f3" style="stroke:#800080;"/>
    </defs>
    <g clip-path="url(#p135dd30f41)">
     <use style="fill:#800080;stroke:#800080;" x="166.154263" xlink:href="#m6e2c7f95f3" y="288.45839"/>
    </g>
   </g>
   <g id="line2d_57">
    <path clip-path="url(#p135dd30f41)" d="M 65.32987 302.436766 
L 72.051496 298.919966 
L 85.494749 291.688257 
L 112.381254 289.294397 
L 139.267758 291.119674 
L 166.154263 292.87091 
L 193.040768 292.804268 
L 219.927273 297.035338 
" style="fill:none;opacity:0.8;stroke:#ff7f0e;stroke-linecap:round;stroke-width:1.5;"/>
    <defs>
     <path d="M 0 3 
C 0.795609 3 1.55874 2.683901 2.12132 2.12132 
C 2.683901 1.55874 3 0.795609 3 0 
C 3 -0.795609 2.683901 -1.55874 2.12132 -2.12132 
C 1.55874 -2.683901 0.795609 -3 0 -3 
C -0.795609 -3 -1.55874 -2.683901 -2.12132 -2.12132 
C -2.683901 -1.55874 -3 -0.795609 -3 0 
C -3 0.795609 -2.683901 1.55874 -2.12132 2.12132 
C -1.55874 2.683901 -0.795609 3 0 3 
z
" id="m9d8bf045f0" style="stroke:#ff7f0e;"/>
    </defs>
    <g clip-path="url(#p135dd30f41)">
     <use style="fill:#ff7f0e;opacity:0.8;stroke:#ff7f0e;" x="65.32987" xlink:href="#m9d8bf045f0" y="302.436766"/>
     <use style="fill:#ff7f0e;opacity:0.8;stroke:#ff7f0e;" x="72.051496" xlink:href="#m9d8bf045f0" y="298.919966"/>
     <use style="fill:#ff7f0e;opacity:0.8;stroke:#ff7f0e;" x="85.494749" xlink:href="#m9d8bf045f0" y="291.688257"/>
     <use style="fill:#ff7f0e;opacity:0.8;stroke:#ff7f0e;" x="112.381254" xlink:href="#m9d8bf045f0" y="289.294397"/>
     <use style="fill:#ff7f0e;opacity:0.8;stroke:#ff7f0e;" x="139.267758" xlink:href="#m9d8bf045f0" y="291.119674"/>
     <use style="fill:#ff7f0e;opacity:0.8;stroke:#ff7f0e;" x="166.154263" xlink:href="#m9d8bf045f0" y="292.87091"/>
     <use style="fill:#ff7f0e;opacity:0.8;stroke:#ff7f0e;" x="193.040768" xlink:href="#m9d8bf045f0" y="292.804268"/>
     <use style="fill:#ff7f0e;opacity:0.8;stroke:#ff7f0e;" x="219.927273" xlink:href="#m9d8bf045f0" y="297.035338"/>
    </g>
   </g>
   <g id="line2d_58">
    <path clip-path="url(#p135dd30f41)" d="M 166.154263 288.45839 
" style="fill:none;stroke:#800080;stroke-linecap:round;stroke-width:1.5;"/>
    <g clip-path="url(#p135dd30f41)">
     <use style="fill:#800080;stroke:#800080;" x="166.154263" xlink:href="#m6e2c7f95f3" y="288.45839"/>
    </g>
   </g>
   <g id="line2d_59">
    <path clip-path="url(#p135dd30f41)" d="M 65.32987 301.981804 
L 68.484919 299.890177 
L 71.639968 297.79855 
L 74.795017 295.706923 
L 77.950066 293.615296 
L 81.105115 291.523669 
L 84.260164 289.432042 
L 87.415213 287.340415 
L 90.570262 285.248788 
L 93.725311 283.157162 
L 96.88036 281.065535 
L 100.035409 278.973908 
L 103.190459 276.882281 
L 106.345508 274.790654 
L 109.500557 272.699027 
L 112.655606 270.6074 
L 115.810655 268.515773 
L 118.965704 266.424146 
L 122.120753 264.332519 
L 125.275802 262.240892 
L 128.430851 260.149266 
L 131.5859 258.057639 
L 134.740949 255.966012 
L 137.895998 253.874385 
L 141.051047 251.782758 
L 144.206096 249.691131 
L 147.361145 247.599504 
L 150.516194 245.507877 
L 153.671243 243.41625 
L 156.826292 241.324623 
L 159.981341 239.232996 
L 163.13639 237.141369 
L 166.291439 235.049743 
L 169.446488 232.958116 
L 172.601537 230.866489 
L 175.756586 228.774862 
L 178.911635 226.683235 
L 182.066684 224.591608 
L 185.221733 222.499981 
L 188.376782 220.408354 
L 191.531831 218.316727 
L 194.68688 216.2251 
L 197.841929 214.133473 
L 200.996979 212.041847 
L 204.152028 209.95022 
L 207.307077 207.858593 
L 210.462126 205.766966 
L 213.617175 203.675339 
L 216.772224 201.583712 
L 219.927273 199.492085 
" style="fill:none;opacity:0.6;stroke:#000000;stroke-dasharray:6.475,2.8;stroke-dashoffset:0;stroke-width:1.75;"/>
   </g>
   <g id="patch_13">
    <path d="M 57.6 307.584 
L 57.6 194.344851 
" style="fill:none;stroke:#262626;stroke-linecap:square;stroke-linejoin:miter;stroke-width:1.25;"/>
   </g>
   <g id="patch_14">
    <path d="M 227.657143 307.584 
L 227.657143 194.344851 
" style="fill:none;stroke:#262626;stroke-linecap:square;stroke-linejoin:miter;stroke-width:1.25;"/>
   </g>
   <g id="patch_15">
    <path d="M 57.6 307.584 
L 227.657143 307.584 
" style="fill:none;stroke:#262626;stroke-linecap:square;stroke-linejoin:miter;stroke-width:1.25;"/>
   </g>
   <g id="patch_16">
    <path d="M 57.6 194.344851 
L 227.657143 194.344851 
" style="fill:none;stroke:#262626;stroke-linecap:square;stroke-linejoin:miter;stroke-width:1.25;"/>
   </g>
   <g id="text_32">
    <!-- Speedup -->
    <g style="fill:#262626;" transform="translate(122.001319 188.344851)scale(0.12 -0.12)">
     <use transform="scale(0.996264)" xlink:href="#CMSS17-83"/>
     <use transform="translate(52.048516 0)scale(0.996264)" xlink:href="#CMSS17-112"/>
     <use transform="translate(102.855898 0)scale(0.996264)" xlink:href="#CMSS17-101"/>
     <use transform="translate(144.49472 0)scale(0.996264)" xlink:href="#CMSS17-101"/>
     <use transform="translate(186.133542 0)scale(0.996264)" xlink:href="#CMSS17-100"/>
     <use transform="translate(234.338485 0)scale(0.996264)" xlink:href="#CMSS17-117"/>
     <use transform="translate(282.543428 0)scale(0.996264)" xlink:href="#CMSS17-112"/>
    </g>
   </g>
  </g>
  <g id="axes_4">
   <g id="patch_17">
    <path d="M 244.662857 307.584 
L 414.72 307.584 
L 414.72 194.344851 
L 244.662857 194.344851 
z
" style="fill:#ffffff;"/>
   </g>
   <g id="matplotlib.axis_7">
    <g id="xtick_10">
     <g id="line2d_60">
      <path clip-path="url(#pcce9baa79d)" d="M 252.392727 307.584 
L 252.392727 194.344851 
" style="fill:none;stroke:#cccccc;stroke-linecap:round;stroke-width:0.8;"/>
     </g>
     <g id="line2d_61"/>
     <g id="text_33">
      <!-- $0$ -->
      <g style="fill:#262626;" transform="translate(249.466232 319.38618)scale(0.12 -0.12)">
       <use transform="scale(0.996264)" xlink:href="#CMR17-48"/>
      </g>
     </g>
    </g>
    <g id="xtick_11">
     <g id="line2d_62">
      <path clip-path="url(#pcce9baa79d)" d="M 316.808312 307.584 
L 316.808312 194.344851 
" style="fill:none;stroke:#cccccc;stroke-linecap:round;stroke-width:0.8;"/>
     </g>
     <g id="line2d_63"/>
     <g id="text_34">
      <!-- $10$ -->
      <g style="fill:#262626;" transform="translate(310.955321 319.38618)scale(0.12 -0.12)">
       <use transform="scale(0.996264)" xlink:href="#CMR17-49"/>
       <use transform="translate(45.690477 0)scale(0.996264)" xlink:href="#CMR17-48"/>
      </g>
     </g>
    </g>
    <g id="xtick_12">
     <g id="line2d_64">
      <path clip-path="url(#pcce9baa79d)" d="M 381.223896 307.584 
L 381.223896 194.344851 
" style="fill:none;stroke:#cccccc;stroke-linecap:round;stroke-width:0.8;"/>
     </g>
     <g id="line2d_65"/>
     <g id="text_35">
      <!-- $20$ -->
      <g style="fill:#262626;" transform="translate(375.370906 319.38618)scale(0.12 -0.12)">
       <use transform="scale(0.996264)" xlink:href="#CMR17-50"/>
       <use transform="translate(45.690477 0)scale(0.996264)" xlink:href="#CMR17-48"/>
      </g>
     </g>
    </g>
    <g id="text_36">
     <!-- $\textit{Threads}$ -->
     <g style="fill:#262626;" transform="translate(310.058342 334.012955)scale(0.12 -0.12)">
      <use transform="scale(0.996264)" xlink:href="#CMSSI17-84"/>
      <use transform="translate(63.819454 0)scale(0.996264)" xlink:href="#CMSSI17-104"/>
      <use transform="translate(112.024397 0)scale(0.996264)" xlink:href="#CMSSI17-114"/>
      <use transform="translate(143.93417 0)scale(0.996264)" xlink:href="#CMSSI17-101"/>
      <use transform="translate(185.572992 0)scale(0.996264)" xlink:href="#CMSSI17-97"/>
      <use transform="translate(230.494912 0)scale(0.996264)" xlink:href="#CMSSI17-100"/>
      <use transform="translate(278.699855 0)scale(0.996264)" xlink:href="#CMSSI17-115"/>
     </g>
    </g>
   </g>
   <g id="matplotlib.axis_8">
    <g id="ytick_10">
     <g id="line2d_66">
      <path clip-path="url(#pcce9baa79d)" d="M 244.662857 307.584 
L 414.72 307.584 
" style="fill:none;stroke:#cccccc;stroke-linecap:round;stroke-width:0.8;"/>
     </g>
     <g id="line2d_67"/>
     <g id="text_37">
      <!-- $0.0$ -->
      <defs>
       <path d="M 18.40625 4.796875 
C 18.40625 7.6875 16 9.671875 13.59375 9.671875 
C 10.703125 9.671875 8.703125 7.28125 8.703125 4.890625 
C 8.703125 2 11.09375 0 13.5 0 
C 16.40625 0 18.40625 2.390625 18.40625 4.796875 
z
" id="CMMI12-58"/>
      </defs>
      <g style="fill:#262626;" transform="translate(226.205215 311.73509)scale(0.12 -0.12)">
       <use transform="scale(0.996264)" xlink:href="#CMR17-48"/>
       <use transform="translate(45.690477 0)scale(0.996264)" xlink:href="#CMMI12-58"/>
       <use transform="translate(72.787654 0)scale(0.996264)" xlink:href="#CMR17-48"/>
      </g>
     </g>
    </g>
    <g id="ytick_11">
     <g id="line2d_68">
      <path clip-path="url(#pcce9baa79d)" d="M 244.662857 256.11166 
L 414.72 256.11166 
" style="fill:none;stroke:#cccccc;stroke-linecap:round;stroke-width:0.8;"/>
     </g>
     <g id="line2d_69"/>
     <g id="text_38">
      <!-- $0.5$ -->
      <g style="fill:#262626;" transform="translate(226.205215 260.262749)scale(0.12 -0.12)">
       <use transform="scale(0.996264)" xlink:href="#CMR17-48"/>
       <use transform="translate(45.690477 0)scale(0.996264)" xlink:href="#CMMI12-58"/>
       <use transform="translate(72.787654 0)scale(0.996264)" xlink:href="#CMR17-53"/>
      </g>
     </g>
    </g>
    <g id="ytick_12">
     <g id="line2d_70">
      <path clip-path="url(#pcce9baa79d)" d="M 244.662857 204.639319 
L 414.72 204.639319 
" style="fill:none;stroke:#cccccc;stroke-linecap:round;stroke-width:0.8;"/>
     </g>
     <g id="line2d_71"/>
     <g id="text_39">
      <!-- $1.0$ -->
      <g style="fill:#262626;" transform="translate(226.205215 208.790409)scale(0.12 -0.12)">
       <use transform="scale(0.996264)" xlink:href="#CMR17-49"/>
       <use transform="translate(45.690477 0)scale(0.996264)" xlink:href="#CMMI12-58"/>
       <use transform="translate(72.787654 0)scale(0.996264)" xlink:href="#CMR17-48"/>
      </g>
     </g>
    </g>
    <g id="text_40">
     <!-- $\textit{Efficiency}$ -->
     <defs>
      <path d="M 24.203125 32.921875 
L 55.203125 32.921875 
L 56.5 39 
L 25.5 39 
L 30.5 62.640625 
L 43.40625 62.640625 
C 44.59375 62.640625 45.796875 62.640625 47 62.640625 
L 64.09375 62.640625 
L 65.5 69 
L 23.5 69 
L 8.796875 0 
L 52.09375 0 
L 53.59375 6.765625 
L 32.09375 6.765625 
C 24.09375 6.765625 20.40625 6.765625 18.59375 6.765625 
z
" id="CMSSI17-69"/>
      <path d="M 83.796875 69 
L 75.796875 69 
L 74.09375 61.03125 
L 82.09375 61.03125 
z
M 61.40625 0 
L 68.796875 0 
L 77.90625 42.765625 
L 70.5 42.765625 
z
M 35.40625 0 
L 42.796875 0 
L 50.703125 37 
L 61.59375 37 
L 62.796875 42.765625 
L 51.703125 42.765625 
L 54.703125 56.5 
C 55.703125 61.03125 58.5 63.9375 61.796875 63.9375 
C 63.59375 63.9375 65.40625 63.484375 67 62.484375 
L 68.40625 69 
C 66.90625 69.703125 66.09375 70 63.09375 70 
C 55.40625 70 48.59375 62.03125 46.703125 52.953125 
z
M 24.703125 37 
L 35.59375 37 
L 36.796875 42.765625 
L 25.703125 42.765625 
L 28.59375 56.109375 
C 29.796875 61.828125 33.796875 63.9375 37.203125 63.9375 
C 38.796875 63.9375 41.203125 63.59375 43.296875 62.484375 
L 44.703125 68.90625 
C 42.59375 69.59375 40.5 70 38.5 70 
C 30.09375 70 22.703125 62.09375 20.796875 53.1875 
L 18.5 42.765625 
L 11.59375 42.765625 
L 10.40625 37 
L 17.296875 37 
L 9.40625 0 
L 16.796875 0 
z
" id="CMSSI17-14"/>
     </defs>
     <g style="fill:#262626;" transform="translate(219.88062 274.065008)rotate(-90)scale(0.12 -0.12)">
      <use transform="scale(0.996264)" xlink:href="#CMSSI17-69"/>
      <use transform="translate(55.892013 0)scale(0.996264)" xlink:href="#CMSSI17-14"/>
      <use transform="translate(132.042955 0)scale(0.996264)" xlink:href="#CMSSI17-99"/>
      <use transform="translate(173.681777 0)scale(0.996264)" xlink:href="#CMSSI17-105"/>
      <use transform="translate(195.8625 0)scale(0.996264)" xlink:href="#CMSSI17-101"/>
      <use transform="translate(237.501323 0)scale(0.996264)" xlink:href="#CMSSI17-110"/>
      <use transform="translate(285.706266 0)scale(0.996264)" xlink:href="#CMSSI17-99"/>
      <use transform="translate(327.345088 0)scale(0.996264)" xlink:href="#CMSSI17-121"/>
     </g>
    </g>
   </g>
   <g id="line2d_72">
    <path clip-path="url(#pcce9baa79d)" d="M 258.834286 205.409859 
L 265.275844 208.296298 
L 278.158961 213.138953 
L 303.925195 249.379648 
L 329.691429 269.445079 
L 355.457662 278.851698 
L 381.223896 284.461308 
L 406.99013 299.1876 
" style="fill:none;opacity:0.8;stroke:#1f77b4;stroke-linecap:round;stroke-width:1.5;"/>
    <defs>
     <path d="M 0 -3 
L -0.673542 -0.927051 
L -2.85317 -0.927051 
L -1.089814 0.354102 
L -1.763356 2.427051 
L -0 1.145898 
L 1.763356 2.427051 
L 1.089814 0.354102 
L 2.85317 -0.927051 
L 0.673542 -0.927051 
z
" id="mb6213dce0c" style="stroke:#1f77b4;stroke-linejoin:bevel;"/>
    </defs>
    <g clip-path="url(#pcce9baa79d)">
     <use style="fill:#1f77b4;opacity:0.8;stroke:#1f77b4;stroke-linejoin:bevel;" x="258.834286" xlink:href="#mb6213dce0c" y="205.409859"/>
     <use style="fill:#1f77b4;opacity:0.8;stroke:#1f77b4;stroke-linejoin:bevel;" x="265.275844" xlink:href="#mb6213dce0c" y="208.296298"/>
     <use style="fill:#1f77b4;opacity:0.8;stroke:#1f77b4;stroke-linejoin:bevel;" x="278.158961" xlink:href="#mb6213dce0c" y="213.138953"/>
     <use style="fill:#1f77b4;opacity:0.8;stroke:#1f77b4;stroke-linejoin:bevel;" x="303.925195" xlink:href="#mb6213dce0c" y="249.379648"/>
     <use style="fill:#1f77b4;opacity:0.8;stroke:#1f77b4;stroke-linejoin:bevel;" x="329.691429" xlink:href="#mb6213dce0c" y="269.445079"/>
     <use style="fill:#1f77b4;opacity:0.8;stroke:#1f77b4;stroke-linejoin:bevel;" x="355.457662" xlink:href="#mb6213dce0c" y="278.851698"/>
     <use style="fill:#1f77b4;opacity:0.8;stroke:#1f77b4;stroke-linejoin:bevel;" x="381.223896" xlink:href="#mb6213dce0c" y="284.461308"/>
     <use style="fill:#1f77b4;opacity:0.8;stroke:#1f77b4;stroke-linejoin:bevel;" x="406.99013" xlink:href="#mb6213dce0c" y="299.1876"/>
    </g>
   </g>
   <g id="line2d_73">
    <path clip-path="url(#pcce9baa79d)" d="M 355.457662 281.623755 
" style="fill:none;stroke:#800080;stroke-linecap:round;stroke-width:1.5;"/>
    <g clip-path="url(#pcce9baa79d)">
     <use style="fill:#800080;stroke:#800080;stroke-linejoin:bevel;" x="355.457662" xlink:href="#m7ffb20cd40" y="281.623755"/>
    </g>
   </g>
   <g id="line2d_74">
    <path clip-path="url(#pcce9baa79d)" d="M 258.834286 215.149902 
L 265.275844 220.744222 
L 278.158961 222.397196 
L 303.925195 258.0777 
L 329.691429 278.093776 
L 355.457662 287.994909 
L 381.223896 291.835749 
L 406.99013 298.533232 
" style="fill:none;opacity:0.8;stroke:#ff7f0e;stroke-linecap:round;stroke-width:1.5;"/>
    <defs>
     <path d="M 0 -3 
L -0.673542 -0.927051 
L -2.85317 -0.927051 
L -1.089814 0.354102 
L -1.763356 2.427051 
L -0 1.145898 
L 1.763356 2.427051 
L 1.089814 0.354102 
L 2.85317 -0.927051 
L 0.673542 -0.927051 
z
" id="me8ae7fb720" style="stroke:#ff7f0e;stroke-linejoin:bevel;"/>
    </defs>
    <g clip-path="url(#pcce9baa79d)">
     <use style="fill:#ff7f0e;opacity:0.8;stroke:#ff7f0e;stroke-linejoin:bevel;" x="258.834286" xlink:href="#me8ae7fb720" y="215.149902"/>
     <use style="fill:#ff7f0e;opacity:0.8;stroke:#ff7f0e;stroke-linejoin:bevel;" x="265.275844" xlink:href="#me8ae7fb720" y="220.744222"/>
     <use style="fill:#ff7f0e;opacity:0.8;stroke:#ff7f0e;stroke-linejoin:bevel;" x="278.158961" xlink:href="#me8ae7fb720" y="222.397196"/>
     <use style="fill:#ff7f0e;opacity:0.8;stroke:#ff7f0e;stroke-linejoin:bevel;" x="303.925195" xlink:href="#me8ae7fb720" y="258.0777"/>
     <use style="fill:#ff7f0e;opacity:0.8;stroke:#ff7f0e;stroke-linejoin:bevel;" x="329.691429" xlink:href="#me8ae7fb720" y="278.093776"/>
     <use style="fill:#ff7f0e;opacity:0.8;stroke:#ff7f0e;stroke-linejoin:bevel;" x="355.457662" xlink:href="#me8ae7fb720" y="287.994909"/>
     <use style="fill:#ff7f0e;opacity:0.8;stroke:#ff7f0e;stroke-linejoin:bevel;" x="381.223896" xlink:href="#me8ae7fb720" y="291.835749"/>
     <use style="fill:#ff7f0e;opacity:0.8;stroke:#ff7f0e;stroke-linejoin:bevel;" x="406.99013" xlink:href="#me8ae7fb720" y="298.533232"/>
    </g>
   </g>
   <g id="line2d_75">
    <path clip-path="url(#pcce9baa79d)" d="M 355.457662 281.623755 
" style="fill:none;stroke:#800080;stroke-linecap:round;stroke-width:1.5;"/>
    <g clip-path="url(#pcce9baa79d)">
     <use style="fill:#800080;stroke:#800080;stroke-linejoin:bevel;" x="355.457662" xlink:href="#m7ffb20cd40" y="281.623755"/>
    </g>
   </g>
   <g id="line2d_76">
    <path clip-path="url(#pcce9baa79d)" d="M 252.392727 204.639319 
L 253.954317 204.639319 
L 255.515907 204.639319 
L 257.077497 204.639319 
L 258.639087 204.639319 
L 260.200677 204.639319 
L 261.762267 204.639319 
L 263.323857 204.639319 
L 264.885447 204.639319 
L 266.447037 204.639319 
L 268.008627 204.639319 
L 269.570216 204.639319 
L 271.131806 204.639319 
L 272.693396 204.639319 
L 274.254986 204.639319 
L 275.816576 204.639319 
L 277.378166 204.639319 
L 278.939756 204.639319 
L 280.501346 204.639319 
L 282.062936 204.639319 
L 283.624526 204.639319 
L 285.186116 204.639319 
L 286.747706 204.639319 
L 288.309296 204.639319 
L 289.870885 204.639319 
L 291.432475 204.639319 
L 292.994065 204.639319 
L 294.555655 204.639319 
L 296.117245 204.639319 
L 297.678835 204.639319 
L 299.240425 204.639319 
L 300.802015 204.639319 
L 302.363605 204.639319 
L 303.925195 204.639319 
L 305.486785 204.639319 
L 307.048375 204.639319 
L 308.609965 204.639319 
L 310.171555 204.639319 
L 311.733144 204.639319 
L 313.294734 204.639319 
L 314.856324 204.639319 
L 316.417914 204.639319 
L 317.979504 204.639319 
L 319.541094 204.639319 
L 321.102684 204.639319 
L 322.664274 204.639319 
L 324.225864 204.639319 
L 325.787454 204.639319 
L 327.349044 204.639319 
L 328.910634 204.639319 
L 330.472224 204.639319 
L 332.033813 204.639319 
L 333.595403 204.639319 
L 335.156993 204.639319 
L 336.718583 204.639319 
L 338.280173 204.639319 
L 339.841763 204.639319 
L 341.403353 204.639319 
L 342.964943 204.639319 
L 344.526533 204.639319 
L 346.088123 204.639319 
L 347.649713 204.639319 
L 349.211303 204.639319 
L 350.772893 204.639319 
L 352.334482 204.639319 
L 353.896072 204.639319 
L 355.457662 204.639319 
L 357.019252 204.639319 
L 358.580842 204.639319 
L 360.142432 204.639319 
L 361.704022 204.639319 
L 363.265612 204.639319 
L 364.827202 204.639319 
L 366.388792 204.639319 
L 367.950382 204.639319 
L 369.511972 204.639319 
L 371.073562 204.639319 
L 372.635152 204.639319 
L 374.196741 204.639319 
L 375.758331 204.639319 
L 377.319921 204.639319 
L 378.881511 204.639319 
L 380.443101 204.639319 
L 382.004691 204.639319 
L 383.566281 204.639319 
L 385.127871 204.639319 
L 386.689461 204.639319 
L 388.251051 204.639319 
L 389.812641 204.639319 
L 391.374231 204.639319 
L 392.935821 204.639319 
L 394.49741 204.639319 
L 396.059 204.639319 
L 397.62059 204.639319 
L 399.18218 204.639319 
L 400.74377 204.639319 
L 402.30536 204.639319 
L 403.86695 204.639319 
L 405.42854 204.639319 
L 406.99013 204.639319 
" style="fill:none;opacity:0.6;stroke:#000000;stroke-dasharray:6.475,2.8;stroke-dashoffset:0;stroke-width:1.75;"/>
   </g>
   <g id="patch_18">
    <path d="M 244.662857 307.584 
L 244.662857 194.344851 
" style="fill:none;stroke:#262626;stroke-linecap:square;stroke-linejoin:miter;stroke-width:1.25;"/>
   </g>
   <g id="patch_19">
    <path d="M 414.72 307.584 
L 414.72 194.344851 
" style="fill:none;stroke:#262626;stroke-linecap:square;stroke-linejoin:miter;stroke-width:1.25;"/>
   </g>
   <g id="patch_20">
    <path d="M 244.662857 307.584 
L 414.72 307.584 
" style="fill:none;stroke:#262626;stroke-linecap:square;stroke-linejoin:miter;stroke-width:1.25;"/>
   </g>
   <g id="patch_21">
    <path d="M 244.662857 194.344851 
L 414.72 194.344851 
" style="fill:none;stroke:#262626;stroke-linecap:square;stroke-linejoin:miter;stroke-width:1.25;"/>
   </g>
   <g id="text_41">
    <!-- Efficiency -->
    <defs>
     <path d="M 30.59375 6.765625 
C 22.59375 6.765625 19 6.765625 17.203125 6.765625 
L 17.203125 32.921875 
L 48.203125 32.921875 
L 48.203125 39 
L 17.203125 39 
L 17.203125 62.640625 
L 30.09375 62.640625 
C 31.296875 62.640625 32.5 62.640625 33.703125 62.640625 
L 50.796875 62.640625 
L 50.796875 69 
L 8.796875 69 
L 8.796875 0 
L 52.09375 0 
L 52.09375 6.765625 
z
" id="CMSS17-69"/>
     <path d="M 69.09375 69 
L 61.09375 69 
L 61.09375 61.03125 
L 69.09375 61.03125 
z
M 68.796875 42.765625 
L 61.40625 42.765625 
L 61.40625 0 
L 68.796875 0 
z
M 42.796875 37 
L 53.703125 37 
L 53.703125 42.765625 
L 42.59375 42.765625 
L 42.59375 55.90625 
C 42.59375 61.234375 45 63.9375 48.203125 63.9375 
C 50.40625 63.9375 52.5 63.15625 53.703125 62.375 
L 53.703125 69 
C 51.90625 69.703125 51.09375 70 48.203125 70 
C 40.703125 70 35.40625 62.421875 35.40625 52.75 
L 35.40625 0 
L 42.796875 0 
z
M 16.796875 37 
L 27.703125 37 
L 27.703125 42.765625 
L 16.59375 42.765625 
L 16.59375 55.703125 
C 16.59375 62.421875 20.703125 63.9375 23.59375 63.9375 
C 25.296875 63.9375 27.703125 63.59375 30 62.484375 
L 30 68.90625 
C 27.40625 70 27 70 23.59375 70 
C 15.40625 70 9.40625 62.484375 9.40625 52.59375 
L 9.40625 42.765625 
L 2.5 42.765625 
L 2.5 37 
L 9.40625 37 
L 9.40625 0 
L 16.796875 0 
z
" id="CMSS17-14"/>
    </defs>
    <g style="fill:#262626;" transform="translate(306.590846 188.344851)scale(0.12 -0.12)">
     <use transform="scale(0.996264)" xlink:href="#CMSS17-69"/>
     <use transform="translate(55.892013 0)scale(0.996264)" xlink:href="#CMSS17-14"/>
     <use transform="translate(132.042955 0)scale(0.996264)" xlink:href="#CMSS17-99"/>
     <use transform="translate(173.681777 0)scale(0.996264)" xlink:href="#CMSS17-105"/>
     <use transform="translate(195.8625 0)scale(0.996264)" xlink:href="#CMSS17-101"/>
     <use transform="translate(237.501323 0)scale(0.996264)" xlink:href="#CMSS17-110"/>
     <use transform="translate(285.706266 0)scale(0.996264)" xlink:href="#CMSS17-99"/>
     <use transform="translate(327.345088 0)scale(0.996264)" xlink:href="#CMSS17-121"/>
    </g>
   </g>
  </g>
  <g id="axes_5">
   <g id="patch_22">
    <path d="M 63.6 92.76766 
L 199.645714 92.76766 
L 199.645714 47.472 
L 63.6 47.472 
z
" style="fill:#ffffff;"/>
   </g>
   <g id="matplotlib.axis_9">
    <g id="xtick_13">
     <g id="line2d_77">
      <path clip-path="url(#pf40145dd94)" d="M 63.6 92.76766 
L 63.6 47.472 
" style="fill:none;stroke:#cccccc;stroke-linecap:round;stroke-width:0.8;"/>
     </g>
     <g id="line2d_78"/>
     <g id="text_42">
      <!-- $0$ -->
      <g style="fill:#262626;" transform="translate(60.673505 104.569839)scale(0.12 -0.12)">
       <use transform="scale(0.996264)" xlink:href="#CMR17-48"/>
      </g>
     </g>
    </g>
    <g id="xtick_14">
     <g id="line2d_79">
      <path clip-path="url(#pf40145dd94)" d="M 131.622857 92.76766 
L 131.622857 47.472 
" style="fill:none;stroke:#cccccc;stroke-linecap:round;stroke-width:0.8;"/>
     </g>
     <g id="line2d_80"/>
     <g id="text_43">
      <!-- $10$ -->
      <g style="fill:#262626;" transform="translate(125.769867 104.569839)scale(0.12 -0.12)">
       <use transform="scale(0.996264)" xlink:href="#CMR17-49"/>
       <use transform="translate(45.690477 0)scale(0.996264)" xlink:href="#CMR17-48"/>
      </g>
     </g>
    </g>
    <g id="xtick_15">
     <g id="line2d_81">
      <path clip-path="url(#pf40145dd94)" d="M 199.645714 92.76766 
L 199.645714 47.472 
" style="fill:none;stroke:#cccccc;stroke-linecap:round;stroke-width:0.8;"/>
     </g>
     <g id="line2d_82"/>
     <g id="text_44">
      <!-- $20$ -->
      <g style="fill:#262626;" transform="translate(193.792724 104.569839)scale(0.12 -0.12)">
       <use transform="scale(0.996264)" xlink:href="#CMR17-50"/>
       <use transform="translate(45.690477 0)scale(0.996264)" xlink:href="#CMR17-48"/>
      </g>
     </g>
    </g>
   </g>
   <g id="matplotlib.axis_10">
    <g id="ytick_13">
     <g id="line2d_83">
      <path clip-path="url(#pf40145dd94)" d="M 63.6 79.826043 
L 199.645714 79.826043 
" style="fill:none;stroke:#cccccc;stroke-linecap:round;stroke-width:0.8;"/>
     </g>
     <g id="line2d_84"/>
     <g id="text_45">
      <!-- $0.0$ -->
      <g style="fill:#262626;" transform="translate(203.145714 83.977132)scale(0.12 -0.12)">
       <use transform="scale(0.996264)" xlink:href="#CMR17-48"/>
       <use transform="translate(45.690477 0)scale(0.996264)" xlink:href="#CMMI12-58"/>
       <use transform="translate(72.787654 0)scale(0.996264)" xlink:href="#CMR17-48"/>
      </g>
     </g>
    </g>
    <g id="ytick_14">
     <g id="line2d_85">
      <path clip-path="url(#pf40145dd94)" d="M 63.6 47.472 
L 199.645714 47.472 
" style="fill:none;stroke:#cccccc;stroke-linecap:round;stroke-width:0.8;"/>
     </g>
     <g id="line2d_86"/>
     <g id="text_46">
      <!-- $0.5$ -->
      <g style="fill:#262626;" transform="translate(203.145714 51.62309)scale(0.12 -0.12)">
       <use transform="scale(0.996264)" xlink:href="#CMR17-48"/>
       <use transform="translate(45.690477 0)scale(0.996264)" xlink:href="#CMMI12-58"/>
       <use transform="translate(72.787654 0)scale(0.996264)" xlink:href="#CMR17-53"/>
      </g>
     </g>
    </g>
   </g>
   <g id="line2d_87">
    <path clip-path="url(#pf40145dd94)" d="M 70.402286 60.297333 
L 77.204571 69.777824 
L 90.809143 74.544323 
L 118.018286 75.540862 
L 145.227429 75.466259 
L 172.436571 75.485699 
L 199.645714 75.511387 
L 226.854857 69.924333 
" style="fill:none;opacity:0.8;stroke:#1f77b4;stroke-linecap:round;stroke-width:1.5;"/>
    <g clip-path="url(#pf40145dd94)">
     <use style="fill:#1f77b4;opacity:0.8;stroke:#1f77b4;stroke-linejoin:bevel;" x="70.402286" xlink:href="#mb6213dce0c" y="60.297333"/>
     <use style="fill:#1f77b4;opacity:0.8;stroke:#1f77b4;stroke-linejoin:bevel;" x="77.204571" xlink:href="#mb6213dce0c" y="69.777824"/>
     <use style="fill:#1f77b4;opacity:0.8;stroke:#1f77b4;stroke-linejoin:bevel;" x="90.809143" xlink:href="#mb6213dce0c" y="74.544323"/>
     <use style="fill:#1f77b4;opacity:0.8;stroke:#1f77b4;stroke-linejoin:bevel;" x="118.018286" xlink:href="#mb6213dce0c" y="75.540862"/>
     <use style="fill:#1f77b4;opacity:0.8;stroke:#1f77b4;stroke-linejoin:bevel;" x="145.227429" xlink:href="#mb6213dce0c" y="75.466259"/>
     <use style="fill:#1f77b4;opacity:0.8;stroke:#1f77b4;stroke-linejoin:bevel;" x="172.436571" xlink:href="#mb6213dce0c" y="75.485699"/>
     <use style="fill:#1f77b4;opacity:0.8;stroke:#1f77b4;stroke-linejoin:bevel;" x="199.645714" xlink:href="#mb6213dce0c" y="75.511387"/>
     <use style="fill:#1f77b4;opacity:0.8;stroke:#1f77b4;stroke-linejoin:bevel;" x="226.854857" xlink:href="#mb6213dce0c" y="69.924333"/>
    </g>
   </g>
   <g id="line2d_88">
    <path clip-path="url(#pf40145dd94)" d="M 70.402286 58.239538 
L 77.204571 68.337476 
L 90.809143 73.970297 
L 118.018286 74.787974 
L 145.227429 74.187651 
L 172.436571 73.459842 
L 199.645714 73.490961 
L 226.854857 70.640224 
" style="fill:none;opacity:0.8;stroke:#ff7f0e;stroke-linecap:round;stroke-width:1.5;"/>
    <g clip-path="url(#pf40145dd94)">
     <use style="fill:#ff7f0e;opacity:0.8;stroke:#ff7f0e;stroke-linejoin:bevel;" x="70.402286" xlink:href="#me8ae7fb720" y="58.239538"/>
     <use style="fill:#ff7f0e;opacity:0.8;stroke:#ff7f0e;stroke-linejoin:bevel;" x="77.204571" xlink:href="#me8ae7fb720" y="68.337476"/>
     <use style="fill:#ff7f0e;opacity:0.8;stroke:#ff7f0e;stroke-linejoin:bevel;" x="90.809143" xlink:href="#me8ae7fb720" y="73.970297"/>
     <use style="fill:#ff7f0e;opacity:0.8;stroke:#ff7f0e;stroke-linejoin:bevel;" x="118.018286" xlink:href="#me8ae7fb720" y="74.787974"/>
     <use style="fill:#ff7f0e;opacity:0.8;stroke:#ff7f0e;stroke-linejoin:bevel;" x="145.227429" xlink:href="#me8ae7fb720" y="74.187651"/>
     <use style="fill:#ff7f0e;opacity:0.8;stroke:#ff7f0e;stroke-linejoin:bevel;" x="172.436571" xlink:href="#me8ae7fb720" y="73.459842"/>
     <use style="fill:#ff7f0e;opacity:0.8;stroke:#ff7f0e;stroke-linejoin:bevel;" x="199.645714" xlink:href="#me8ae7fb720" y="73.490961"/>
     <use style="fill:#ff7f0e;opacity:0.8;stroke:#ff7f0e;stroke-linejoin:bevel;" x="226.854857" xlink:href="#me8ae7fb720" y="70.640224"/>
    </g>
   </g>
   <g id="line2d_89">
    <path clip-path="url(#pf40145dd94)" d="M 70.402286 60.443505 
L 77.204571 70.134774 
L 90.809143 74.980408 
L 118.018286 77.403225 
L 145.227429 78.210831 
L 172.436571 78.614634 
L 199.645714 78.856916 
L 226.854857 79.018437 
" style="fill:none;opacity:0.6;stroke:#000000;stroke-dasharray:6.475,2.8;stroke-dashoffset:0;stroke-width:1.75;"/>
   </g>
   <g id="line2d_90">
    <path clip-path="url(#pf40145dd94)" d="M 70.402286 60.443505 
L 77.204571 60.443505 
L 90.809143 60.443505 
L 118.018286 60.443505 
L 145.227429 60.443505 
L 172.436571 60.443505 
L 199.645714 60.443505 
L 226.854857 60.443505 
" style="fill:none;stroke:#008000;stroke-dasharray:6.4,1.6,1,1.6;stroke-dashoffset:0;"/>
   </g>
   <g id="line2d_91">
    <path clip-path="url(#pf40145dd94)" d="M 172.436571 75.022233 
" style="fill:none;stroke:#800080;stroke-linecap:round;stroke-width:1.5;"/>
    <g clip-path="url(#pf40145dd94)">
     <use style="fill:#800080;stroke:#800080;stroke-linejoin:bevel;" x="172.436571" xlink:href="#m7ffb20cd40" y="75.022233"/>
    </g>
   </g>
   <g id="patch_23">
    <path d="M 63.6 92.76766 
L 63.6 47.472 
" style="fill:none;stroke:#262626;stroke-linecap:square;stroke-linejoin:miter;stroke-width:1.25;"/>
   </g>
   <g id="patch_24">
    <path d="M 199.645714 92.76766 
L 199.645714 47.472 
" style="fill:none;stroke:#262626;stroke-linecap:square;stroke-linejoin:miter;stroke-width:1.25;"/>
   </g>
   <g id="patch_25">
    <path d="M 63.6 92.76766 
L 199.645714 92.76766 
" style="fill:none;stroke:#262626;stroke-linecap:square;stroke-linejoin:miter;stroke-width:1.25;"/>
   </g>
   <g id="patch_26">
    <path d="M 63.6 47.472 
L 199.645714 47.472 
" style="fill:none;stroke:#262626;stroke-linecap:square;stroke-linejoin:miter;stroke-width:1.25;"/>
   </g>
  </g>
 </g>
 <defs>
  <clipPath id="p5d5e73585b">
   <rect height="113.239149" width="170.057143" x="57.6" y="41.472"/>
  </clipPath>
  <clipPath id="p33134eb56d">
   <rect height="113.239149" width="170.057143" x="244.662857" y="41.472"/>
  </clipPath>
  <clipPath id="p135dd30f41">
   <rect height="113.239149" width="170.057143" x="57.6" y="194.344851"/>
  </clipPath>
  <clipPath id="pcce9baa79d">
   <rect height="113.239149" width="170.057143" x="244.662857" y="194.344851"/>
  </clipPath>
  <clipPath id="pf40145dd94">
   <rect height="45.29566" width="136.045714" x="63.6" y="47.472"/>
  </clipPath>
 </defs>
</svg>
